<svg xmlns="http://www.w3.org/2000/svg" version="1.1" xmlns:xlink="http://www.w3.org/1999/xlink" width="512" height="512" x="0" y="0" viewBox="0 0 512 512" style="enable-background:new 0 0 512 512" xml:space="preserve"><g><path d="M481.131 128.186c-.58-.098-14.411-2.375-31.876-1.802-24.79.8-44.558 6.698-58.755 17.532-16.666 12.715-29.801 27.159-38.191 37.493a140.33 140.33 0 0 0-13.845-5.695c2.67-14.414 8.737-37.428 22.103-57.527 3.324-4.999 6.321-9.416 9.02-13.399C394.468 68.097 397.201 61.989 397.201 0H363.81c0 53.812 0 53.812-21.86 86.048a1789.57 1789.57 0 0 0-9.189 13.649c-15.831 23.805-23.295 50.342-26.75 68-18.317-2.921-35.938-3.448-50.008-3.448s-31.691.529-50.008 3.448c-3.455-17.658-10.919-44.195-26.75-67.999a1706.18 1706.18 0 0 0-9.189-13.65c-21.86-32.236-21.86-32.236-21.86-86.048h-33.391c0 61.989 2.732 68.097 27.616 104.789 2.7 3.982 5.697 8.4 9.02 13.4 13.278 19.965 19.37 43.073 22.071 57.537a140.914 140.914 0 0 0-13.813 5.683c-8.39-10.333-21.525-24.777-38.191-37.493-14.197-10.833-33.966-16.731-58.755-17.531-17.469-.573-31.295 1.704-31.876 1.802l-15.496 2.586 1.641 15.625c.062.585 1.566 14.546 6.761 31.261 7.372 23.723 18.305 41.243 32.494 52.068 16.485 12.58 33.683 21.373 45.835 26.744-1.408 7.797-2.119 16.034-2.119 24.69 0 35.515 8.136 57.23 18.436 84.72 3.4 9.075 6.915 18.459 10.551 29.412.281.847.564 1.694.849 2.542C163.696 375.65 208.394 363.02 256 363.02c47.607 0 92.305 12.629 126.175 34.814.285-.848.568-1.695.848-2.541 3.636-10.953 7.151-20.336 10.551-29.412 10.301-27.49 18.436-49.205 18.436-84.72 0-8.655-.711-16.893-2.119-24.69 12.152-5.372 29.35-14.165 45.835-26.744 14.189-10.827 25.122-28.345 32.494-52.068 5.195-16.715 6.699-30.675 6.761-31.261l1.641-15.625-15.491-2.587zM202.394 290.665c-11.655 0-21.14-9.616-21.14-21.477 0-11.864 9.484-21.471 21.14-21.471 11.67 0 21.153 9.608 21.153 21.471 0 11.861-9.483 21.477-21.153 21.477zm107.06.16c-11.768 0-21.314-9.687-21.314-21.638s9.545-21.638 21.314-21.638c11.754 0 21.299 9.687 21.299 21.638 0 11.951-9.545 21.638-21.299 21.638z" fill="#000000" opacity="1" data-original="#000000"></path><path d="M141.984 430.072C161.074 474 191.302 512 256.003 512s94.929-38 114.019-81.928c-28.871-21.113-70.408-33.661-114.019-33.661s-85.146 12.549-114.019 33.661zm84.329 19.02c-8.041 0-14.584-6.634-14.584-14.817 0-8.184 6.544-14.812 14.584-14.812 8.051 0 14.593 6.628 14.593 14.812 0 8.183-6.541 14.817-14.593 14.817zm59.271-29.745c8.109 0 14.693 6.683 14.693 14.928 0 8.244-6.586 14.927-14.693 14.927-8.119 0-14.703-6.683-14.703-14.927-.002-8.245 6.584-14.928 14.703-14.928z" fill="#000000" opacity="1" data-original="#000000"></path></g></svg>