<svg xmlns="http://www.w3.org/2000/svg" version="1.1" xmlns:xlink="http://www.w3.org/1999/xlink" width="512" height="512" x="0" y="0" viewBox="0 0 512.001 512.001" style="enable-background:new 0 0 512 512" xml:space="preserve" class=""><g><path d="m486.516 227.642-51.458-102.854c-11.353-22.688-31.731-43.911-57.384-59.76-25.655-15.851-53.756-24.581-79.124-24.581h-85.036c-25.37 0-53.471 8.729-79.126 24.58-25.655 15.85-46.036 37.074-57.388 59.762L25.544 227.642c-11.3 22.586-16.395 51.733-14.344 82.071 2.049 30.337 11.019 58.535 25.255 79.392l31.688 46.441c25.585 37.496 79.556 69.312 128.329 75.65.641.083 1.287.125 1.934.125l115.261-.004c.646 0 1.291-.042 1.932-.125 48.766-6.336 102.733-38.149 128.322-75.646l31.69-46.439c14.232-20.86 23.2-49.057 25.251-79.394 2.049-30.34-3.046-59.486-14.346-82.071zm-164.243-47.839a15.125 15.125 0 0 1 10.608-4.391c3.951 0 7.814 1.6 10.612 4.391a15.117 15.117 0 0 1 4.389 10.611c0 3.95-1.6 7.811-4.389 10.611a15.131 15.131 0 0 1-10.612 4.391c-3.949 0-7.81-1.6-10.608-4.391a15.114 15.114 0 0 1-4.393-10.611 15.117 15.117 0 0 1 4.393-10.611zm-153.699 0a15.114 15.114 0 0 1 10.612-4.391c3.939 0 7.81 1.6 10.601 4.391 2.789 2.79 4.401 6.661 4.401 10.611 0 3.95-1.611 7.821-4.401 10.611a15.093 15.093 0 0 1-10.601 4.391 15.11 15.11 0 0 1-10.612-4.391 15.119 15.119 0 0 1-4.389-10.611c0-3.95 1.6-7.821 4.389-10.611zm145.093 198.046a72.586 72.586 0 0 1-15.002-1.559v76.038h-85.272V376.29a72.655 72.655 0 0 1-15.002 1.559c-40.052 0-72.637-32.586-72.637-72.64 0-8.285 6.718-15.002 15.002-15.002 8.286 0 15.002 6.717 15.002 15.002 0 23.51 19.125 42.637 42.634 42.637 22.253 0 40.569-17.143 42.462-38.915l-7.423-12.857a15.004 15.004 0 0 1 12.992-22.502h19.215a15 15 0 0 1 12.99 22.506l-7.427 12.857c1.895 21.772 20.209 38.912 42.466 38.912 23.509 0 42.636-19.127 42.636-42.637 0-8.285 6.716-15.002 15.002-15.002 8.284 0 15.002 6.717 15.002 15.002 0 40.053-32.588 72.639-72.64 72.639zM94.65 5.074A15 15 0 0 0 81.932.829C61.347 3.752 42.679 13.084 27.946 27.817 9.925 45.839 0 69.798 0 95.283c0 24.379 9.087 47.358 25.651 65.084l24.517-49.004c13.811-27.602 38.119-53.122 68.451-71.862a211.851 211.851 0 0 1 6.567-3.89L94.65 5.074zM484.113 27.817C469.379 13.084 450.711 3.752 430.127.83a14.997 14.997 0 0 0-12.716 4.245l-30.536 30.537a211.289 211.289 0 0 1 6.571 3.892c30.327 18.736 54.634 44.257 68.447 71.86l24.505 48.983c34.875-37.359 34.129-96.114-2.285-132.53z" fill="#000000" opacity="1" data-original="#000000" class=""></path></g></svg>