<svg xmlns="http://www.w3.org/2000/svg" version="1.1" xmlns:xlink="http://www.w3.org/1999/xlink" width="512" height="512" x="0" y="0" viewBox="0 0 512.002 512.002" style="enable-background:new 0 0 512 512" xml:space="preserve"><g><path d="M459.594 142.329c-19.655-7.76-41.493-8.764-63.158-2.898-16.067 4.35-31.414 12.251-45.866 23.55-7.919-18.486-21.121-34.201-37.706-45.235 2.256-9.433 7.412-23.858 15.811-35.316a37.834 37.834 0 0 0 12.912 2.262c20.923 0 37.946-17.001 37.946-37.898S362.509 8.897 341.586 8.897c-20.923 0-37.946 16.999-37.946 37.897 0 3.926.601 7.713 1.716 11.277-11.579 14.013-19.184 31.403-23.342 45.835a102.78 102.78 0 0 0-26.015-3.331c-8.984 0-17.703 1.16-26.015 3.331-4.158-14.432-11.763-31.822-23.342-45.835a37.742 37.742 0 0 0 1.716-11.277c0-20.896-17.023-37.897-37.946-37.897s-37.946 16.999-37.946 37.897 17.023 37.898 37.946 37.898c4.532 0 8.88-.8 12.911-2.262 8.399 11.457 13.556 25.882 15.811 35.316-16.586 11.034-29.787 26.749-37.706 45.235-14.452-11.297-29.799-19.2-45.866-23.55-21.664-5.866-43.503-4.862-63.158 2.898C20.362 154.982-.208 183.293.001 214.454c.121 18.035 7.277 35.636 20.694 50.899 10.69 12.161 25.154 22.721 43.139 31.516-7.827 20.583-3.386 44.286 13.175 62.93 12.152 13.683 30.869 23.779 51.548 23.779 5.842 0 11.842-.817 17.892-2.577 12.724 41.695 48.743 73.337 92.855 79.799v42.303h33.391V460.8c44.111-6.463 80.13-38.105 92.854-79.799 6.052 1.76 12.05 2.576 17.893 2.576 20.676 0 39.397-10.097 51.548-23.779 16.561-18.645 21.002-42.347 13.175-62.93 17.986-8.795 32.45-19.356 43.139-31.516 13.417-15.264 20.571-32.865 20.694-50.899.208-31.16-20.362-59.47-52.404-72.124zm-177.701 32.52c5.693 0 10.318 4.67 10.318 10.431 0 5.76-4.625 10.43-10.318 10.43-5.701 0-10.325-4.67-10.325-10.43s4.624-10.431 10.325-10.431zm-51.865.081c5.653 0 10.248 4.631 10.248 10.35 0 5.718-4.594 10.352-10.248 10.352-5.646 0-10.241-4.636-10.241-10.352.001-5.719 4.596-10.35 10.241-10.35zM200.06 289.216c16.11 10.469 35.325 16.563 55.94 16.563 20.616 0 39.83-6.094 55.94-16.563a81.227 81.227 0 0 1 18.765 27.148H181.294a81.225 81.225 0 0 1 18.766-27.148zm55.939 139.432c-22.004 0-41.977-8.796-56.603-23.032h113.206c-14.626 14.235-34.599 23.032-56.603 23.032zm77.306-56.424h-154.61c-2.269-7.116-3.558-14.658-3.749-22.469h162.108c-.19 7.811-1.481 15.352-3.749 22.469z" fill="#000000" opacity="1" data-original="#000000"></path></g></svg>