<svg xmlns="http://www.w3.org/2000/svg" version="1.1" xmlns:xlink="http://www.w3.org/1999/xlink" width="512" height="512" x="0" y="0" viewBox="0 0 511.999 511.999" style="enable-background:new 0 0 512 512" xml:space="preserve" class=""><g><path d="M231.652 369.234c-6.606 0-11.982 5.464-11.982 12.21s5.376 12.215 11.982 12.215c6.615 0 11.99-5.469 11.99-12.215-.001-6.746-5.375-12.21-11.99-12.21zM280.257 369.138c-6.67 0-12.081 5.51-12.081 12.306 0 6.796 5.411 12.306 12.081 12.306 6.662 0 12.072-5.51 12.072-12.306 0-6.796-5.409-12.306-12.072-12.306z" fill="#000000" opacity="1" data-original="#000000" class=""></path><path d="M492.698 134.491c21.082-49.033 5.56-96.657-2.092-114.857L482.352 0l-17.091 12.706c-10.563 7.851-27.876 14.356-46.206 21.241-28.25 10.613-59.348 22.309-78.987 43.772C315.457 55.338 285.617 42.79 256 42.79c-29.617 0-59.457 12.547-84.067 34.928-19.64-21.463-50.737-33.159-78.987-43.772-18.331-6.885-35.643-13.389-46.206-21.241L29.647 0l-8.254 19.633c-7.652 18.2-23.174 65.826-2.092 114.857 15.374 35.759 46.671 63.87 93.088 83.695a298.537 298.537 0 0 0-.375 14.802c0 18.402-5.398 43.165-11.113 69.383-1.608 7.377-3.223 14.792-4.752 22.189-12.246-14.365-21.379-31.818-26.834-51.602l-32.184 8.875c9.259 33.579 27.211 61.953 52.122 82.68-3.418 27.5-2.941 53.216 6.932 73.943 13.709 28.779 41.882 49.708 83.736 62.203 36.155 10.795 69.717 11.341 76.078 11.341 6.361 0 39.924-.546 76.078-11.341 41.853-12.496 70.026-33.425 83.736-62.204 9.873-20.726 10.35-46.442 6.932-73.943 24.911-20.727 42.863-49.102 52.122-82.68l-32.184-8.875c-5.456 19.783-14.588 37.236-26.834 51.602-1.529-7.397-3.143-14.812-4.752-22.189-5.716-26.218-11.113-50.981-11.113-69.383 0-5.075-.137-9.998-.375-14.802 46.418-19.823 77.714-47.934 93.089-83.693zm-186.232 41.031c11.096 0 20.109 9.177 20.109 20.498s-9.012 20.498-20.109 20.498c-11.111 0-20.123-9.177-20.123-20.498 0-11.32 9.013-20.498 20.123-20.498zm-101.079.159c11.018 0 19.971 9.101 19.971 20.34 0 11.237-8.953 20.346-19.971 20.346-11.004 0-19.959-9.11-19.959-20.346 0-11.239 8.954-20.34 19.959-20.34zM256 437.494c-38.915 0-70.576-25.144-70.576-56.049s31.66-56.049 70.576-56.049 70.576 25.144 70.576 56.049-31.66 56.049-70.576 56.049z" fill="#000000" opacity="1" data-original="#000000" class=""></path></g></svg>