<svg xmlns="http://www.w3.org/2000/svg" version="1.1" xmlns:xlink="http://www.w3.org/1999/xlink" width="512" height="512" x="0" y="0" viewBox="0 0 512.001 512.001" style="enable-background:new 0 0 512 512" xml:space="preserve"><g><path d="M432.713 317.8a176.082 176.082 0 0 0-12.602-50.917l62.12-35.864-16.696-28.917-61.051 35.247a178.986 178.986 0 0 0-47.315-48.619 103.456 103.456 0 0 0 2.157-21.029c0-37.173-19.735-69.82-49.275-88.025 4.755-29.137 29.088-57.354 29.361-57.666L314.301 0c-1.306 1.487-27.017 31.151-35.642 66.885A103.324 103.324 0 0 0 256 64.376c-7.782 0-15.364.87-22.659 2.509C224.716 31.151 199.005 1.487 197.699 0l-25.091 22.033c7.415 8.445 25.279 33.405 29.319 57.659-29.528 18.208-49.252 50.848-49.252 88.01 0 7.106.728 14.139 2.157 21.029a178.943 178.943 0 0 0-47.315 48.619l-61.051-35.247L29.77 231.02l62.12 35.864a176.082 176.082 0 0 0-12.602 50.917H6.516v33.391h72.771a176.076 176.076 0 0 0 12.602 50.916l-62.12 35.865 16.696 28.917 61.051-35.248C139.26 479.998 193.959 512 256 512s116.74-32.002 148.484-80.358l61.051 35.248 16.696-28.917-62.119-35.865a176.042 176.042 0 0 0 12.601-50.916h72.772V317.8h-72.772zM239.305 477.635c-71.628-8.301-127.418-69.322-127.418-143.139 0-73.818 55.79-134.839 127.418-143.142v286.281zm33.391.001V191.355c71.628 8.301 127.418 69.323 127.418 143.142-.001 73.815-55.791 134.837-127.418 143.139z" fill="#000000" opacity="1" data-original="#000000"></path><circle cx="199.179" cy="273.597" r="17.653" fill="#000000" opacity="1" data-original="#000000"></circle><circle cx="158.342" cy="334.491" r="17.653" fill="#000000" opacity="1" data-original="#000000"></circle><circle cx="199.179" cy="395.386" r="17.653" fill="#000000" opacity="1" data-original="#000000"></circle><circle cx="312.821" cy="273.597" r="17.653" fill="#000000" opacity="1" data-original="#000000"></circle><circle cx="353.658" cy="334.491" r="17.653" fill="#000000" opacity="1" data-original="#000000"></circle><circle cx="312.821" cy="395.386" r="17.653" fill="#000000" opacity="1" data-original="#000000"></circle></g></svg>