<svg xmlns="http://www.w3.org/2000/svg" version="1.1" xmlns:xlink="http://www.w3.org/1999/xlink" width="512" height="512" x="0" y="0" viewBox="0 0 511.999 511.999" style="enable-background:new 0 0 512 512" xml:space="preserve"><g><path d="m424.604 367.783 50.982-11.852-7.57-32.564-45.884 10.667c-5.734-33.622-21.039-66.338-43.941-93.115 20.398-28.261 36.519-64.516 45.937-103.675 9.715-40.395 10.989-79.329 3.411-104.148-6.575-21.53-18.56-29.159-27.459-31.767-8.213-2.408-21.333-2.722-37.192 9.447-33.103 25.401-68.55 100.03-73.331 174.202A146.696 146.696 0 0 0 256 181.079c-11.36 0-22.588 1.325-33.557 3.899-4.781-74.172-40.228-148.802-73.331-174.202-15.861-12.17-28.979-11.857-37.193-9.448-8.896 2.609-20.882 10.238-27.458 31.767-7.579 24.819-6.304 63.753 3.411 104.148 9.418 39.159 25.539 75.415 45.937 103.675-22.902 26.777-38.206 59.495-43.941 93.115l-45.884-10.667-7.57 32.564 50.982 11.852c.508 20.176 4.622 38.934 12.144 55.901l-63.125 14.676 7.57 32.564 73.963-17.195c5.852 7.212 12.511 13.926 19.971 20.083 26.592 21.95 62.119 35.25 101.367 38.19v-82.876c-14.57-8.472-27.814-25.651-27.814-39.56 0-26.232 28.968-26.232 44.53-26.232s44.531 0 44.531 26.232c0 13.909-13.245 31.089-27.815 39.56V512c39.248-2.94 74.773-16.239 101.365-38.19 7.46-6.158 14.118-12.871 19.971-20.083l73.963 17.195 7.57-32.564-63.125-14.676c7.52-16.965 11.634-35.724 12.142-55.899zM204.057 318.76c-11.293 0-20.484-9.303-20.484-20.779 0-11.477 9.19-20.772 20.484-20.772 11.308 0 20.496 9.295 20.496 20.772 0 11.474-9.188 20.779-20.496 20.779zm103.737.154c-11.403 0-20.652-9.372-20.652-20.934 0-11.562 9.25-20.934 20.652-20.934 11.388 0 20.638 9.372 20.638 20.934s-9.249 20.934-20.638 20.934z" fill="#000000" opacity="1" data-original="#000000"></path></g></svg>