<svg xmlns="http://www.w3.org/2000/svg" version="1.1" xmlns:xlink="http://www.w3.org/1999/xlink" width="512" height="512" x="0" y="0" viewBox="0 0 512 512" style="enable-background:new 0 0 512 512" xml:space="preserve"><g><path d="M486.394 291.69 512 285.75l-7.543-32.529-20.412 4.734c-2.477-17.576-6.872-35.028-13.06-51.972 18.364-51.938 20.35-112.093 5.451-170.588l-4.2-16.487-16.404 4.509c-6.976 1.917-67.448 19.132-96.399 46.97a226.127 226.127 0 0 0-12.835-6.904c-28.971-14.355-59.453-21.636-90.599-21.636s-61.627 7.279-90.599 21.636a226.764 226.764 0 0 0-12.835 6.904c-28.951-27.838-89.425-45.052-96.4-46.97l-16.404-4.509-4.201 16.488c-14.901 58.495-12.915 118.65 5.451 170.588-6.188 16.944-10.583 34.396-13.06 51.971l-20.407-4.733L0 285.752l25.602 5.938c.09 32.296 6.875 62.006 19.974 88.297L0 390.555l7.544 32.529 56.806-13.175c8.598 11.122 18.581 21.398 29.918 30.734 37.727 31.069 88.738 49.42 145.034 52.449V383.018c-21.422-9.76-42.529-35.172-42.529-55.386 0-33.428 37.075-33.428 59.225-33.428 22.151 0 59.226 0 59.226 33.428 0 20.215-21.108 45.627-42.53 55.386v110.074c56.294-3.03 107.304-21.38 145.03-52.449 11.337-9.336 21.321-19.612 29.919-30.735l56.812 13.176 7.543-32.529-45.58-10.571c13.101-26.289 19.886-56 19.976-88.294zm-285.14-49.316c-11.902 0-21.588-9.782-21.588-21.847 0-12.068 9.686-21.841 21.588-21.841 11.918 0 21.601 9.773 21.601 21.841 0 12.066-9.683 21.847-21.601 21.847zm109.329.164c-12.018 0-21.766-9.854-21.766-22.011s9.748-22.011 21.766-22.011c12.002 0 21.75 9.854 21.75 22.011.001 12.156-9.746 22.011-21.75 22.011z" fill="#000000" opacity="1" data-original="#000000"></path></g></svg>