<svg xmlns="http://www.w3.org/2000/svg" version="1.1" xmlns:xlink="http://www.w3.org/1999/xlink" width="512" height="512" x="0" y="0" viewBox="0 0 512.001 512.001" style="enable-background:new 0 0 512 512" xml:space="preserve"><g><path d="M136.795 385.194c20.433 44.637 52.686 82.368 119.205 82.368 66.52 0 98.774-37.732 119.206-82.369C347.191 366.55 302.89 355.254 256 355.254c-46.889 0-91.188 11.297-119.205 29.94zm86.392 24.047c-8.886 0-16.118-7.293-16.118-16.288 0-8.997 7.232-16.283 16.118-16.283 8.897 0 16.128 7.285 16.128 16.283 0 8.995-7.229 16.288-16.128 16.288zm65.505-32.697c8.962 0 16.239 7.346 16.239 16.411 0 9.063-7.279 16.409-16.239 16.409-8.973 0-16.25-7.346-16.25-16.409 0-9.065 7.278-16.411 16.25-16.411zM504.219 108.787l-6.071-13.618-14.216 4.495c-37.786 11.946-81.791 25.718-101.68 31.935-6.612-5.268-14.008-9.909-22.168-13.888a146.564 146.564 0 0 0-13.205-5.634c5.967-14.231 11.732-36.115 11.732-67.637h-33.398c0 25.162-4.285 41.936-7.877 51.578a76.314 76.314 0 0 1-3.162 7.337c-21.244-3.811-41.924-4.47-58.172-4.47-16.262 0-36.967.66-58.231 4.48-4.526-9.15-10.98-27.677-10.98-58.926h-33.398c0 31.522 5.763 53.406 11.732 67.637a145.992 145.992 0 0 0-13.205 5.634c-8.16 3.978-15.557 8.619-22.168 13.888-19.888-6.216-63.892-19.987-101.68-31.935l-14.216-4.495-6.071 13.618c-7.43 16.671-13.316 41.172.837 63.227 17.692 27.569 57.643 36.322 81.713 39.1a159.666 159.666 0 0 0-.413 11.356c0 37.693 8.696 60.774 19.702 89.996 3.649 9.688 7.423 19.705 11.329 31.407 1.081 3.24 2.189 6.49 3.329 9.742 33.529-20.118 80.946-31.759 131.722-31.759s98.193 11.642 131.722 31.759a701.503 701.503 0 0 0 3.328-9.742c3.905-11.703 7.678-21.72 11.328-31.407 11.008-29.222 19.702-52.302 19.702-89.996 0-3.869-.149-7.648-.413-11.356 24.07-2.778 64.022-11.531 81.713-39.1 14.151-22.055 8.265-46.555.835-63.226zm-300.17 138.808c-11.294 0-20.486-9.269-20.486-20.702 0-11.435 9.191-20.695 20.486-20.695 11.308 0 20.498 9.26 20.498 20.695.001 11.434-9.188 20.702-20.498 20.702zm103.749.156c-11.404 0-20.654-9.338-20.654-20.857 0-11.52 9.25-20.857 20.654-20.857 11.39 0 20.64 9.338 20.64 20.857s-9.25 20.857-20.64 20.857z" fill="#000000" opacity="1" data-original="#000000"></path></g></svg>