<svg xmlns="http://www.w3.org/2000/svg" version="1.1" xmlns:xlink="http://www.w3.org/1999/xlink" width="512" height="512" x="0" y="0" viewBox="0 0 512 512" style="enable-background:new 0 0 512 512" xml:space="preserve" class=""><g><path d="M78.846 64.083c-.138-9.29.857-19.811 3.563-31.617 2.17-9.229-7.263-16.679-15.434-13.201C40.769 29.847.809 56.821 11.911 121.277a101.388 101.388 0 0 1 6.373-11.478c13.648-21.207 34.857-36.998 60.562-45.716zM37.306 190.502c7.677 16.413 28.241 50.047 39.414 68.004 6.953-21.993 20.95-41.636 41.059-57.494l-15.072-29.126c28.627-26.213 28.868-58.733 26.696-75.088-.79-6.109-6.355-10.525-12.409-10.032-62.666 4.839-98.179 53.081-79.688 103.736zM493.716 109.799a101.41 101.41 0 0 1 6.374 11.479c11.102-64.456-28.858-91.43-55.064-102.013-8.172-3.478-17.605 3.973-15.434 13.201 2.706 11.807 3.701 22.328 3.563 31.618 25.706 8.718 46.914 24.509 60.561 45.715zM474.695 190.502c18.491-50.655-17.023-98.897-79.689-103.737-6.053-.493-11.618 3.924-12.408 10.032-2.172 16.355-1.931 48.875 26.696 75.088l-15.072 29.126c20.11 15.859 34.107 35.501 41.059 57.494 11.173-17.957 31.738-51.59 39.414-68.003zM71.77 287.134H15c-8.284 0-15 6.716-15 15s6.716 15 15 15h59.366c-2.055-8.817-3.051-18.755-2.596-30zM80.323 334.628l-34.332 13.367a15 15 0 0 0-9.014 9.977l-13.212 47.734c-5.137 18.871 23.509 26.947 28.914 8.002l11.204-40.486 23.193-9.03 10.502-4.089c-6.453-6.986-12.58-15.289-17.255-25.475zM132.413 391.513c-3.408-3.929-8.569-8.131-14.035-12.579l-.386-.314-31.977 29.196a15 15 0 0 0-4.885 10.943l-.388 43.109c-.075 8.284 6.58 15.06 14.864 15.134h.138c8.221 0 14.923-6.627 14.996-14.865l.329-36.573 12.268-11.201 16.022-14.628c-.102-.125-4.682-5.613-6.946-8.222zM179.683 435.731c-7.702-4.148-14.114-8.866-19.762-13.88l-10.672 10.07a14.997 14.997 0 0 0-4.355 14.135l7.927 36c4.387 19.213 33.427 12.657 29.299-6.451l-6.1-27.698 9.733-9.184a103.01 103.01 0 0 1-6.07-2.992zM431.677 334.628l34.332 13.367a15 15 0 0 1 9.014 9.977l13.212 47.734c5.137 18.871-23.509 26.947-28.914 8.002l-11.204-40.486-23.193-9.03-10.502-4.089c6.454-6.986 12.58-15.289 17.255-25.475zM379.587 391.513c3.408-3.929 8.569-8.131 14.035-12.579l.386-.314 31.977 29.196a15 15 0 0 1 4.885 10.943l.388 43.109c.075 8.284-6.58 15.06-14.864 15.134h-.138c-8.221 0-14.923-6.627-14.996-14.865l-.329-36.573-12.268-11.201-16.022-14.628c.102-.125 4.683-5.613 6.946-8.222zM332.317 435.731c7.702-4.148 14.114-8.866 19.762-13.88l10.672 10.07a14.997 14.997 0 0 1 4.355 14.135l-7.927 36c-4.387 19.213-33.427 12.657-29.299-6.451l6.1-27.698-9.733-9.184a102.703 102.703 0 0 0 6.07-2.992zM497 287.134h-56.769c.455 11.245-.541 21.184-2.596 30H497c8.284 0 15-6.716 15-15s-6.716-15-15-15zM211.902 193.506c-62.956 10.894-107.796 45.398-110.137 94.048-2.455 51.033 33.74 61.737 53.311 84.302 23.647 27.265 34.225 49.176 100.924 49.176s77.277-21.911 100.924-49.176c19.57-22.565 55.766-33.269 53.311-84.302-2.341-48.65-47.181-83.154-110.137-94.048v-25.398c0-1.667.17-3.313.484-4.923a25.683 25.683 0 0 1 8.337-14.457c6.247-5.441 6.9-14.916 1.46-21.163-5.44-6.248-14.916-6.9-21.163-1.46a55.67 55.67 0 0 0-18.535 34.089 55.667 55.667 0 0 0-.583 7.914v22.095c-4.636-.237-9.335-.363-14.097-.363s-9.462.126-14.098.363v-22.095c0-2.667-.209-5.309-.583-7.914a55.67 55.67 0 0 0-18.535-34.089c-6.247-5.44-15.723-4.787-21.163 1.46s-4.787 15.722 1.46 21.163a25.683 25.683 0 0 1 8.337 14.457c.314 1.609.484 3.256.484 4.923v25.398zm96.211 81.874c-3.267 4.424-4.993 9.678-4.993 15.194s1.727 10.77 4.993 15.194c4.921 6.665 3.507 16.057-3.158 20.977a14.936 14.936 0 0 1-8.897 2.934 14.977 14.977 0 0 1-12.079-6.091c-7.104-9.622-10.858-21.038-10.858-33.013s3.755-23.392 10.858-33.013c4.922-6.665 14.314-8.078 20.977-3.158 6.664 4.919 8.078 14.311 3.157 20.976zm-80.092 48.208a14.978 14.978 0 0 1-12.078 6.09c-3.096 0-6.218-.955-8.898-2.935-6.665-4.921-8.077-14.313-3.156-20.977 3.267-4.424 4.993-9.677 4.993-15.193s-1.727-10.769-4.993-15.193c-4.921-6.664-3.509-16.056 3.156-20.977 6.663-4.921 16.056-3.509 20.977 3.156 7.104 9.621 10.86 21.038 10.86 33.014s-3.757 23.394-10.861 33.015z" fill="#000000" opacity="1" data-original="#000000"></path></g></svg>