<svg xmlns="http://www.w3.org/2000/svg" version="1.1" xmlns:xlink="http://www.w3.org/1999/xlink" width="512" height="512" x="0" y="0" viewBox="0 0 512 512" style="enable-background:new 0 0 512 512" xml:space="preserve"><g><path d="M497.242 170.144c-13.01-24.29-32.471-44.956-57.895-61.501-11.033-32.533-41.628-54.693-76.701-54.693a81.424 81.424 0 0 0-45.626 14.011c-19.127-2.335-39.617-3.518-61.02-3.518-21.403 0-41.893 1.183-61.02 3.518a81.418 81.418 0 0 0-45.625-14.011c-35.073 0-65.667 22.161-76.702 54.693-25.422 16.547-44.882 37.211-57.894 61.501C3.877 190.458 0 209.111 0 219.795c0 25.247 2.576 89.994 26.43 145.8 25.854 60.485 69.209 92.455 125.379 92.455h208.384c56.169 0 99.525-31.971 125.379-92.455C509.424 309.788 512 245.042 512 219.795c0-10.684-3.877-29.337-14.758-49.651zm-137.19-50.512c11.292 0 20.482 9.229 20.482 20.626 0 11.395-9.189 20.633-20.482 20.633-11.306 0-20.494-9.237-20.494-20.633-.001-11.397 9.187-20.626 20.494-20.626zm-71.366 127.952c8.96 0 16.236 7.322 16.236 16.355 0 9.033-7.277 16.355-16.236 16.355-8.971 0-16.247-7.322-16.247-16.355 0-9.034 7.275-16.355 16.247-16.355zm-65.493.127c8.897 0 16.125 7.261 16.125 16.228 0 8.966-7.229 16.234-16.125 16.234-8.884 0-16.115-7.268-16.115-16.234 0-8.967 7.231-16.228 16.115-16.228zm-71.245-128.079c11.306 0 20.495 9.229 20.495 20.626 0 11.395-9.188 20.633-20.495 20.633-11.292 0-20.482-9.237-20.482-20.633 0-11.397 9.19-20.626 20.482-20.626zm289.383 161.002c-32.024 0-40.525 9.577-53.39 24.074-2.714 3.058-5.523 6.222-8.599 9.401v57.519h-33.391v-33.652c-8.085 3.681-17.624 6.905-29.112 9.412v54.105h-33.391v-49.459c-8.395.621-17.512.956-27.447.956-9.935 0-19.052-.335-27.447-.956v49.458h-33.391v-54.105c-11.488-2.507-21.026-5.73-29.112-9.412v33.651H132.66v-57.519c-3.076-3.178-5.886-6.342-8.599-9.401-12.867-14.496-21.366-24.074-53.39-24.074v-33.391c47.035 0 63.679 18.755 78.365 35.301 16.168 18.217 32.886 37.054 106.966 37.054s90.798-18.837 106.966-37.054c14.685-16.546 31.329-35.301 78.365-35.301v33.393z" fill="#000000" opacity="1" data-original="#000000"></path></g></svg>