<svg xmlns="http://www.w3.org/2000/svg" version="1.1" xmlns:xlink="http://www.w3.org/1999/xlink" width="512" height="512" x="0" y="0" viewBox="0 0 512 512" style="enable-background:new 0 0 512 512" xml:space="preserve" class=""><g><path d="M503.072 81.463 497.001 67.9l-14.175 4.461c-44.519 14.014-96.895 30.322-115.951 36.249a122.906 122.906 0 0 0-9.25-4.999C323.816 87.202 283.433 85.305 256 85.305c-27.433 0-67.816 1.898-101.624 18.306a122.906 122.906 0 0 0-9.25 4.999c-19.056-5.928-71.43-22.234-115.951-36.249L14.999 67.9 8.928 81.463c-12.094 27.014-11.9 50.078.576 68.553 19.2 28.43 61.872 34.828 85.466 36.124-.849 6.278-1.292 12.808-1.292 19.597 0 36.684 8.492 59.126 19.242 87.539 3.555 9.399 7.233 19.116 11.036 30.466C143.474 381.974 171.382 444.1 256 444.1s112.526-62.128 132.043-120.359c3.803-11.349 7.481-21.067 11.036-30.466 10.751-28.414 19.242-50.856 19.242-87.539 0-6.788-.443-13.318-1.292-19.597 23.595-1.296 66.267-7.695 85.466-36.124 12.477-18.474 12.671-41.539.577-68.552zM183.594 206.204c0-11.379 9.187-20.595 20.477-20.595 11.304 0 20.49 9.216 20.49 20.595 0 11.378-9.186 20.602-20.49 20.602-11.289-.001-20.477-9.225-20.477-20.602zM256 377.87c-28.154 0-51.06-18.353-51.06-40.911s22.905-40.911 51.06-40.911c28.154 0 51.06 18.353 51.06 40.911S284.154 377.87 256 377.87zm51.774-150.911c-11.399 0-20.645-9.293-20.645-20.755 0-11.464 9.246-20.756 20.645-20.756 11.385 0 20.631 9.292 20.631 20.756.001 11.463-9.246 20.755-20.631 20.755z" fill="#000000" opacity="1" data-original="#000000" class=""></path></g></svg>