<svg xmlns="http://www.w3.org/2000/svg" version="1.1" xmlns:xlink="http://www.w3.org/1999/xlink" width="512" height="512" x="0" y="0" viewBox="0 0 512 512" style="enable-background:new 0 0 512 512" xml:space="preserve"><g><path d="m475.138 425.576-59.547-267.664C414.682 70.684 343.44 0 256 0S97.318 70.684 96.409 157.912L36.862 425.576a14.998 14.998 0 0 0 4.035 13.864l68.164 68.166a15 15 0 0 0 21.212 0l57.56-57.56 57.56 57.56A14.954 14.954 0 0 0 256 512a14.95 14.95 0 0 0 10.606-4.394l57.56-57.56 57.56 57.56a15 15 0 0 0 21.213 0l68.164-68.166a15 15 0 0 0 4.035-13.864zM197.196 100.795a15.085 15.085 0 0 1 10.6-4.39c3.949 0 7.82 1.6 10.61 4.39 2.79 2.79 4.399 6.66 4.399 10.601a15.12 15.12 0 0 1-4.399 10.609 15.123 15.123 0 0 1-10.61 4.4c-3.939 0-7.81-1.61-10.6-4.4a15.112 15.112 0 0 1-4.391-10.609 15.112 15.112 0 0 1 4.391-10.601zm120.636 113.263L269.633 319.06a15.002 15.002 0 0 1-27.266 0l-48.199-105.003a15.002 15.002 0 0 1 3.026-16.864l48.199-48.2a15 15 0 0 1 21.212 0l48.199 48.2a15.001 15.001 0 0 1 3.028 16.865zm-3.026-92.053a15.112 15.112 0 0 1-10.609 4.391 15.094 15.094 0 0 1-10.602-4.391c-2.789-2.79-4.398-6.66-4.398-10.6 0-3.95 1.609-7.82 4.398-10.61a15.1 15.1 0 0 1 10.602-4.399 15.12 15.12 0 0 1 10.609 4.399 15.117 15.117 0 0 1 4.391 10.61 15.115 15.115 0 0 1-4.391 10.6z" fill="#000000" opacity="1" data-original="#000000"></path></g></svg>