<svg xmlns="http://www.w3.org/2000/svg" version="1.1" xmlns:xlink="http://www.w3.org/1999/xlink" width="512" height="512" x="0" y="0" viewBox="0 0 512 512" style="enable-background:new 0 0 512 512" xml:space="preserve" class=""><g><path d="M419.992 88.126c-27.236 0-45.558 7.663-56.952 15.117a116.109 116.109 0 0 0-13.723-10.157C325.074 77.751 293.678 69.975 256 69.975s-69.074 7.776-93.318 23.112a115.986 115.986 0 0 0-13.722 10.157c-11.395-7.454-29.716-15.117-56.952-15.117C41.275 88.126 0 126.387 0 173.417c0 28.128 15.012 42.748 29.529 56.887 9.335 9.092 18.989 18.494 26.853 33.125 1.309 2.435 2.543 4.801 3.735 7.086 10.838 20.765 22.044 42.238 54.902 42.238 19.167 0 33.991-9.57 43.44-18.165 1.42 1.101 2.866 2.215 4.355 3.361 14.5 11.154 41.488 31.917 41.488 44.701 0 4.492-.785 5.033-3.785 6.393-6.864 3.111-20.031 4.622-40.254 4.622h-16.696v88.36h70.51c30.476 0 51.268-6.754 65.428-21.257 12.83-13.139 17.662-29.86 22.777-47.561 7.643-26.454 15.556-53.762 50.862-78.988 9.427 8.688 24.391 18.533 43.835 18.533 32.857 0 44.063-21.472 54.9-42.236a637.91 637.91 0 0 1 3.737-7.088c7.865-14.631 17.518-24.033 26.854-33.125 14.519-14.139 29.53-28.76 29.53-56.887 0-47.029-41.274-85.29-92.008-85.29zM214.388 215.863c-9.863 0-17.863-8.046-17.863-17.971s8.001-17.971 17.863-17.971c9.85 0 17.851 8.046 17.851 17.971s-8.001 17.971-17.851 17.971zm83.237 0c-9.863 0-17.863-8.046-17.863-17.971s8.001-17.971 17.863-17.971c9.85 0 17.851 8.046 17.851 17.971s-8.001 17.971-17.851 17.971z" fill="#000000" opacity="1" data-original="#000000" class=""></path></g></svg>