<svg xmlns="http://www.w3.org/2000/svg" version="1.1" xmlns:xlink="http://www.w3.org/1999/xlink" width="512" height="512" x="0" y="0" viewBox="0 0 512.002 512.002" style="enable-background:new 0 0 512 512" xml:space="preserve"><g><path d="M490.832 272.416c-20.897-13.576-35.254-36.838-50.452-61.466-1.59-2.576-3.209-5.194-4.85-7.829 28.834-81.877-10.957-147.618-12.722-150.465l-11.901-19.205-69.165 79.344C317.14 102.419 288.769 97.317 256 97.317s-61.14 5.103-85.742 15.479l-69.165-79.344-11.902 19.206c-1.763 2.846-41.556 68.587-12.722 150.465-1.641 2.635-3.26 5.252-4.85 7.829-15.198 24.628-29.554 47.889-50.452 61.466L0 286.169l20.954 14.077c1.247.838 125.11 84.155 153.263 111.943 8.852 8.737 15.932 17.845 22.78 26.655 15.175 19.521 30.866 39.707 59.004 39.707 28.138 0 43.83-20.186 59.004-39.707 6.848-8.809 13.928-17.918 22.78-26.655 28.152-27.788 152.016-111.105 153.263-111.943l20.954-14.077-21.17-13.753zM208.671 400.249c-3.389-3.906-7.035-7.864-11.023-11.8-21.811-21.527-91.169-70.116-130.445-97.081 22.1-6.25 54.547-13.032 91.294-13.032 11.425 0 20.061 3.447 27.18 10.846 21.103 21.937 23.56 73.233 22.994 111.067zm47.328 44.947c-5.61 0-10.226-2.147-15.171-6.513.097-3.435.248-7.35.414-11.623l.05-1.314h29.417l.05 1.314c.166 4.273.317 8.189.414 11.623-4.946 4.366-9.564 6.513-15.174 6.513zm58.354-56.746c-3.988 3.936-7.634 7.895-11.023 11.8-.566-37.834 1.891-89.13 22.994-111.067 7.118-7.399 15.755-10.846 27.181-10.846 36.747 0 69.193 6.782 91.294 13.032-39.278 26.963-108.636 75.553-130.446 97.081z" fill="#000000" opacity="1" data-original="#000000"></path><path d="M360.456 291.91c-9.304 0-16.851 7.54-16.851 16.84 0 9.301 7.547 16.84 16.851 16.84 9.293 0 16.839-7.54 16.839-16.84.001-9.3-7.546-16.84-16.839-16.84zM151.555 291.91c-9.304 0-16.851 7.54-16.851 16.84 0 9.301 7.547 16.84 16.851 16.84 9.293 0 16.839-7.54 16.839-16.84.001-9.3-7.546-16.84-16.839-16.84z" fill="#000000" opacity="1" data-original="#000000"></path></g></svg>