<svg xmlns="http://www.w3.org/2000/svg" version="1.1" xmlns:xlink="http://www.w3.org/1999/xlink" width="512" height="512" x="0" y="0" viewBox="0 0 512.001 512.001" style="enable-background:new 0 0 512 512" xml:space="preserve" class=""><g><path d="M109.423 107.243c-11.412 0-20.669 9.318-20.669 20.814 0 11.495 9.258 20.814 20.669 20.814 11.398 0 20.655-9.319 20.655-20.814 0-11.496-9.257-20.814-20.655-20.814zM402.591 107.243c-11.412 0-20.669 9.318-20.669 20.814 0 11.495 9.257 20.814 20.669 20.814 11.398 0 20.655-9.319 20.655-20.814 0-11.496-9.257-20.814-20.655-20.814z" fill="#000000" opacity="1" data-original="#000000" class=""></path><path d="M477.795 175.055c8.623-13.628 13.634-29.737 13.634-47 0-48.772-39.854-88.451-88.844-88.451-32.831 0-61.538 17.836-76.918 44.272-22.538-4.895-45.866-7.381-69.666-7.381-23.737 0-47.102 2.478-69.67 7.375-15.38-26.434-44.085-44.267-76.915-44.267-48.989 0-88.844 39.679-88.844 88.451 0 17.262 5.011 33.373 13.634 47C13.417 202.728 1.727 233.776 0 266.063c27.426 21.956 56.876 37.243 92.182 47.882 43.349 13.064 96.935 19.415 163.819 19.415 66.883 0 120.469-6.35 163.818-19.415 35.304-10.639 64.754-25.925 92.181-47.881-1.726-32.284-13.415-63.335-34.205-91.009zm-368.379 8.031c-30.561 0-55.422-24.686-55.422-55.031 0-30.344 24.862-55.03 55.422-55.03 30.561 0 55.422 24.686 55.422 55.03 0 30.345-24.862 55.031-55.422 55.031zM219.973 292.28c-9.757 0-17.697-7.984-17.697-17.834s7.94-17.828 17.697-17.828c9.769 0 17.708 7.978 17.708 17.828s-7.939 17.834-17.708 17.834zm71.921.134c-9.852 0-17.843-8.045-17.843-17.967 0-9.923 7.991-17.967 17.843-17.967 9.839 0 17.83 8.043 17.83 17.967s-7.99 17.967-17.83 17.967zm110.69-109.328c-30.561 0-55.422-24.686-55.422-55.031 0-30.344 24.861-55.03 55.422-55.03 30.561 0 55.422 24.686 55.422 55.03 0 30.345-24.861 55.031-55.422 55.031z" fill="#000000" opacity="1" data-original="#000000" class=""></path><path d="M429.462 345.945c-46.522 14.021-103.262 20.836-173.461 20.836s-126.94-6.816-173.463-20.836c-29.201-8.8-54.85-20.473-78.691-35.916 9.3 40.106 34.307 76.846 72.702 105.899 48.124 36.415 111.854 56.469 179.451 56.469s131.327-20.054 179.451-56.469c38.394-29.052 63.401-65.792 72.701-105.897-23.842 15.442-49.491 27.114-78.69 35.914z" fill="#000000" opacity="1" data-original="#000000" class=""></path></g></svg>