<svg xmlns="http://www.w3.org/2000/svg" version="1.1" xmlns:xlink="http://www.w3.org/1999/xlink" width="512" height="512" x="0" y="0" viewBox="0 0 512.002 512.002" style="enable-background:new 0 0 512 512" xml:space="preserve"><g><path d="M256.001 376.776c-46.247.002-90.329 13.682-121.057 36.708 7.312 15.503 16.06 30.085 27.181 42.484 23.538 26.242 54.245 38.998 93.876 38.998s70.34-12.756 93.876-38.998c11.122-12.399 19.87-26.983 27.182-42.485-30.728-23.027-74.809-36.707-121.058-36.707zm-32.81 75.347c-8.886 0-16.117-7.276-16.117-16.252 0-8.977 7.231-16.246 16.117-16.246 8.897 0 16.127 7.27 16.127 16.246 0 8.977-7.23 16.252-16.127 16.252zm65.502.123c-8.972 0-16.249-7.33-16.249-16.373 0-9.043 7.277-16.373 16.249-16.373 8.961 0 16.238 7.33 16.238 16.373 0 9.042-7.278 16.373-16.238 16.373z" fill="#000000" opacity="1" data-original="#000000"></path><path d="m504.752 134.598-6.071-13.593-14.198 4.478c-34.778 10.972-75.296 23.623-93.436 29.281-8.045-7.269-17.396-13.523-28.008-18.684-9.572-4.657-19.651-8.197-29.833-10.896V99.1c15.354-6.502 26.15-21.689 26.15-39.343 0-23.558-19.222-42.721-42.848-42.721-23.627 0-42.849 19.165-42.849 42.721 0 17.654 10.796 32.841 26.151 39.343v19.911c-16.054-1.856-31.223-2.236-43.809-2.236s-27.755.381-43.809 2.236V99.1c15.356-6.502 26.151-21.689 26.151-39.343 0-23.558-19.223-42.721-42.849-42.721-23.627 0-42.848 19.165-42.848 42.721 0 17.654 10.796 32.841 26.15 39.343v26.083c-10.181 2.7-20.26 6.24-29.833 10.896-10.611 5.162-19.963 11.415-28.008 18.684-18.14-5.657-58.658-18.309-93.436-29.281l-14.198-4.478-6.071 13.594c-12.532 28.055-6.5 47.707.767 59.255 16.851 26.774 55.519 35.382 77.727 38.145a163.939 163.939 0 0 0-.405 11.396c0 38.683 8.949 62.386 20.278 92.395 3.763 9.966 7.653 20.271 11.681 32.314a679.538 679.538 0 0 0 4.68 13.539c35.831-24.371 83.354-38.259 134.022-38.259 50.667 0 98.191 13.887 134.022 38.259a679.456 679.456 0 0 0 4.68-13.538c4.028-12.043 7.918-22.349 11.681-32.314 11.329-30.01 20.278-53.712 20.278-92.395 0-3.881-.146-7.673-.405-11.396 22.208-2.763 60.877-11.371 77.727-38.145 7.269-11.549 13.301-31.201.769-59.256zM204.054 266.301c-11.293 0-20.485-9.247-20.485-20.656 0-11.409 9.191-20.649 20.485-20.649 11.308 0 20.497 9.24 20.497 20.649s-9.19 20.656-20.497 20.656zm103.742.155c-11.404 0-20.653-9.316-20.653-20.809 0-11.494 9.25-20.81 20.653-20.81 11.389 0 20.639 9.316 20.639 20.81.001 11.492-9.25 20.809-20.639 20.809z" fill="#000000" opacity="1" data-original="#000000"></path></g></svg>