<svg xmlns="http://www.w3.org/2000/svg" version="1.1" xmlns:xlink="http://www.w3.org/1999/xlink" width="512" height="512" x="0" y="0" viewBox="0 0 512.001 512.001" style="enable-background:new 0 0 512 512" xml:space="preserve"><g><path d="M484.198 188.902c-17.302-6.339-28.51-14.881-40.377-23.926-18.682-14.239-37.966-28.93-76.231-30.643-9.161-9.457-19.735-17.178-31.767-23.212 5.399-37.595 38.126-69.425 61.967-81.048L383.129 0c-28.665 13.975-69.556 50.607-79.371 99.808-14.393-3.299-30.283-4.946-47.757-4.946s-33.364 1.648-47.757 4.946C198.429 50.607 157.539 13.975 128.873 0l-14.661 30.074c23.841 11.623 56.568 43.453 61.967 81.048-12.032 6.033-22.605 13.755-31.767 23.212-38.265 1.713-57.548 16.404-76.231 30.643-11.867 9.044-23.075 17.588-40.377 23.926l-20.656 7.569 12.813 17.882c1.046 1.46 10.709 14.58 27.633 25.595 15.416 10.034 31.883 15.106 48.628 15.106.498 0 .998-.022 1.498-.03-4.532 27.253-8.952 52.716-20.189 60.635L59.07 328.67l17.826 13.868c64.784 50.396 85.03 89.038 99.815 117.254 13.72 26.184 24.916 47.51 62.563 52.211V402.136c-21.51-9.858-42.714-35.565-42.714-56.014 0-33.76 37.209-33.76 59.442-33.76s59.442 0 59.442 33.76c0 20.447-21.203 46.154-42.714 56.014v109.865c37.647-4.701 48.843-26.026 62.563-52.211 14.784-28.216 35.031-66.857 99.815-117.254l17.826-13.868-18.461-13.01c-11.236-7.92-15.656-33.382-20.189-60.635.5.009.999.03 1.498.03 16.743-.001 33.212-5.072 48.628-15.106 16.924-11.015 26.587-24.136 27.633-25.595l12.813-17.882-20.658-7.568zM204.16 240.546c-11.27 0-20.442-9.342-20.442-20.866 0-11.526 9.171-20.86 20.442-20.86 11.285 0 20.455 9.334 20.455 20.86 0 11.524-9.17 20.866-20.455 20.866zm103.528.156c-11.38 0-20.61-9.411-20.61-21.023s9.231-21.023 20.61-21.023c11.365 0 20.596 9.411 20.596 21.023s-9.231 21.023-20.596 21.023z" fill="#000000" opacity="1" data-original="#000000"></path></g></svg>