<svg xmlns="http://www.w3.org/2000/svg" version="1.1" xmlns:xlink="http://www.w3.org/1999/xlink" width="512" height="512" x="0" y="0" viewBox="0 0 512 512" style="enable-background:new 0 0 512 512" xml:space="preserve"><g><path d="m480.046 272.715-58.62-154.833a18.101 18.101 0 0 0-.182-.457c-18.685-44.843-62.355-91.583-99.423-106.41C304.065 3.911 280.689 0 256 0s-48.064 3.911-65.821 11.015c-37.066 14.826-80.737 61.567-99.422 106.41-.063.151-.124.304-.183.457L31.953 272.713c-9.178 22.18-11.878 49.966-7.601 78.273 4.293 28.41 15.143 54.24 30.554 72.733l17.642 21.169c15.059 18.071 38.172 34.964 65.08 47.567C164.538 505.059 192.311 512 215.834 512h80.333c23.523 0 51.295-6.941 78.205-19.545 26.909-12.604 50.022-29.496 65.081-47.567l17.642-21.169c15.41-18.492 26.261-44.322 30.554-72.733 4.277-28.308 1.578-56.092-7.603-78.271zM256 482c-53.081 0-97.124-39.406-104.429-90.5h208.857C353.124 442.594 309.081 482 256 482zM151.552 361.5c3.59-25.745 16.497-52.086 39.854-81.672a15.003 15.003 0 0 0-8.019-23.817c-14.633-3.784-24.854-17.002-24.854-32.144 0-18.306 14.894-33.201 33.2-33.201h128.533c18.307 0 33.2 14.895 33.2 33.201 0 15.142-10.22 28.36-24.854 32.144a15.003 15.003 0 0 0-8.018 23.817c23.357 29.586 36.264 55.927 39.854 81.672H151.552z" fill="#000000" opacity="1" data-original="#000000"></path><path d="M218.407 213.265a15.07 15.07 0 0 0-10.601-4.4c-3.961 0-7.819 1.6-10.609 4.4-2.801 2.779-4.4 6.649-4.4 10.6 0 3.95 1.6 7.82 4.4 10.61a15.103 15.103 0 0 0 10.609 4.39c3.939 0 7.801-1.6 10.601-4.39 2.79-2.8 4.39-6.66 4.39-10.61s-1.6-7.81-4.39-10.6zM314.805 213.265a15.074 15.074 0 0 0-10.609-4.4 15.06 15.06 0 0 0-10.602 4.4 15.079 15.079 0 0 0-4.398 10.6c0 3.95 1.609 7.82 4.398 10.61a15.09 15.09 0 0 0 10.602 4.39c3.949 0 7.819-1.6 10.609-4.39 2.789-2.79 4.391-6.66 4.391-10.61s-1.602-7.81-4.391-10.6zM0 207.8a63.092 63.092 0 0 0 10.969 35.611l36.676-96.869C20.294 153.491 0 178.317 0 207.8zM464.354 146.542l36.677 96.87A63.095 63.095 0 0 0 512 207.8c0-29.483-20.294-54.31-47.646-61.258z" fill="#000000" opacity="1" data-original="#000000"></path></g></svg>