<svg xmlns="http://www.w3.org/2000/svg" version="1.1" xmlns:xlink="http://www.w3.org/1999/xlink" width="512" height="512" x="0" y="0" viewBox="0 0 512 512" style="enable-background:new 0 0 512 512" xml:space="preserve"><g><path d="M454.156 194.62c-5.104-11.263-10.381-22.909-15.845-36.517a726.677 726.677 0 0 0-5.186-12.597c10.791-4.112 20.575-10.715 28.553-19.428 12.734-13.908 19.748-31.978 19.748-50.881C481.425 33.733 447.835 0 406.544 0 380.14 0 356.5 13.588 343.082 35.201 318.6 23.022 289.787 17.044 256 17.044s-62.6 5.978-87.082 18.156C155.497 13.588 131.858 0 105.455 0 64.164 0 30.574 33.733 30.574 75.196c0 18.904 7.013 36.973 19.748 50.881 7.979 8.714 17.762 15.318 28.553 19.428a722.063 722.063 0 0 0-5.186 12.597c-5.463 13.608-10.741 25.254-15.844 36.517-15.391 33.963-27.548 60.791-27.548 104.703 0 30.235 8.28 56.218 24.608 77.229 14.002 18.017 34.016 32.386 59.483 42.706 22.045 8.933 46.236 14.141 69.673 17.153v57.1L239.303 512V375.531c-17.627-9.157-34.316-30.063-34.316-46.836 0-11.847 5.62-20.486 16.25-24.983 7.593-3.212 17.99-4.582 34.763-4.582s27.17 1.371 34.763 4.582c10.631 4.498 16.25 13.136 16.25 24.983 0 16.774-16.69 37.679-34.316 46.836V512l55.243-18.489v-57.1c23.437-3.012 47.629-8.22 69.673-17.153 25.468-10.32 45.481-24.69 59.483-42.706 16.329-21.01 24.608-46.994 24.608-77.229-.001-43.912-12.157-70.74-27.548-104.703zm-250.281 21.666c-11.332 0-20.555-9.375-20.555-20.94 0-11.567 9.223-20.934 20.555-20.934 11.346 0 20.567 9.367 20.567 20.934-.001 11.564-9.221 20.94-20.567 20.94zm104.095.156c-11.442 0-20.724-9.445-20.724-21.097 0-11.651 9.282-21.097 20.724-21.097 11.428 0 20.709 9.445 20.709 21.097s-9.282 21.097-20.709 21.097z" fill="#000000" opacity="1" data-original="#000000"></path></g></svg>