<svg xmlns="http://www.w3.org/2000/svg" version="1.1" xmlns:xlink="http://www.w3.org/1999/xlink" width="512" height="512" x="0" y="0" viewBox="0 0 512 512" style="enable-background:new 0 0 512 512" xml:space="preserve" class=""><g><path d="M256 341.49c-27.688 0-50.213 18.039-50.213 40.215 0 22.174 22.526 40.213 50.213 40.213s50.213-18.039 50.213-40.213c0-22.176-22.526-40.215-50.213-40.215z" fill="#000000" opacity="1" data-original="#000000"></path><path d="M482.767 294.07 512 265.195l-29.233-28.875 19.852-35.864-36.245-19.519 8.923-39.777-40.049-8.901-2.074-40.467-40.791 1.698-12.302-38.464-38.941 11.668-21.385-34.209-34.833 20.605L256 24.995l-28.922 28.096-34.835-20.606-21.384 34.209-38.941-11.668-12.301 38.464-40.79-1.7-2.074 40.467-40.049 8.901 8.923 39.777-36.245 19.52 19.851 35.864L0 265.195l29.233 28.875-19.852 35.863 36.245 19.52-8.923 39.777 40.049 8.901 2.074 40.466 44.991-1.872a129.034 129.034 0 0 0 11.874 11.701c29.19 25.239 70.792 38.579 120.309 38.579s91.119-13.34 120.309-38.579a128.781 128.781 0 0 0 11.874-11.701l44.991 1.872 2.074-40.467 40.049-8.901-8.923-39.777 36.244-19.52-19.851-35.862zm-128.29 129.109c-23.039 19.92-57.091 30.449-98.477 30.449s-75.439-10.53-98.477-30.449c-23.679-20.474-35.686-50.292-35.686-88.628 0-39.181 2.568-79.191 21.198-106.408 7.083-10.347 28.635-41.834 112.966-41.834s105.883 31.487 112.966 41.834c18.63 27.217 21.198 67.227 21.198 106.408-.001 38.336-12.008 68.153-35.688 88.628z" fill="#000000" opacity="1" data-original="#000000"></path><path d="M205.589 264.677c-10.959 0-19.879 8.932-19.879 19.961 0 11.027 8.919 19.966 19.879 19.966 10.975 0 19.891-8.94 19.891-19.966-.001-11.03-8.918-19.961-19.891-19.961zM306.26 264.521c-11.066 0-20.042 9.005-20.042 20.116 0 11.11 8.976 20.116 20.042 20.116 11.051 0 20.028-9.006 20.028-20.116s-8.975-20.116-20.028-20.116z" fill="#000000" opacity="1" data-original="#000000"></path></g></svg>