<svg xmlns="http://www.w3.org/2000/svg" version="1.1" xmlns:xlink="http://www.w3.org/1999/xlink" width="512" height="512" x="0" y="0" viewBox="0 0 512 512" style="enable-background:new 0 0 512 512" xml:space="preserve"><g><path d="M381.695 137.076c-12.419-10.309-26.68-18.826-42.302-25.413 6.525-16.295 11.767-40.153-2.197-58.535-8.607-11.332-19.416-15.668-28.799-16.646-1.602-3.301-3.627-6.945-6.143-10.608C290.633 8.947 274.638 0 256.001 0c-18.638 0-34.632 8.947-46.255 25.874a82.34 82.34 0 0 0-6.143 10.608c-9.383.978-20.193 5.315-28.799 16.646-13.964 18.383-8.722 42.241-2.197 58.535-15.622 6.587-29.883 15.104-42.302 25.413-35.118 29.15-53.68 69.865-53.68 117.74 0 47.706 18.887 96.492 51.82 133.846 23.007 26.095 50.593 44.435 80.351 53.879a342.483 342.483 0 0 1-1.31 6.845c-2.93 14.76-6.576 33.129 5.077 47.322C221.011 506.998 235.22 512 256.001 512s34.991-5.002 43.438-15.292c11.654-14.194 8.006-32.562 5.077-47.322a343.85 343.85 0 0 1-1.31-6.845c29.757-9.444 57.344-27.784 80.351-53.879 32.932-37.354 51.82-86.14 51.82-133.846-.002-47.876-18.564-88.59-53.682-117.74zM156.984 227.4c0-11.463 9.128-20.747 20.345-20.747 11.232 0 20.359 9.283 20.359 20.747 0 11.462-9.127 20.754-20.359 20.754-11.217 0-20.345-9.292-20.345-20.754zm99.017 163.746-64.605-103.277 64.605-58.489 64.606 58.489-64.606 103.277zm78.517-142.837c-11.326 0-20.513-9.361-20.513-20.909 0-11.548 9.187-20.909 20.513-20.909 11.312 0 20.499 9.361 20.499 20.909 0 11.548-9.187 20.909-20.499 20.909z" fill="#000000" opacity="1" data-original="#000000"></path></g></svg>