<svg xmlns="http://www.w3.org/2000/svg" version="1.1" xmlns:xlink="http://www.w3.org/1999/xlink" width="512" height="512" x="0" y="0" viewBox="0 0 512 512" style="enable-background:new 0 0 512 512" xml:space="preserve" class=""><g><path d="M474.11 281.088a128.407 128.407 0 0 0-5.165-4.962c.058-1.964.094-3.919.094-5.847 0-43.386-5.452-79.988-16.534-110.595a83.07 83.07 0 0 0 29.588-24.603c12.544-16.711 18.271-37.353 16.127-58.122-4.695-45.471-45.647-78.672-91.282-73.996-30.409 3.111-55.841 22.059-67.674 48.994C314.835 44.473 287.06 40.695 256 40.695c-31.059 0-58.835 3.779-83.266 11.261C160.903 25.02 135.471 6.071 105.061 2.96 59.429-1.707 18.474 31.488 13.779 76.958c-2.144 20.769 3.583 41.412 16.127 58.122a83.088 83.088 0 0 0 29.588 24.603C48.412 190.291 42.96 226.891 42.96 270.278c0 1.928.037 3.882.095 5.847a128.382 128.382 0 0 0-5.164 4.962C13.457 305.942 0 339.518 0 375.629c0 73.804 60.286 133.848 134.387 133.848h243.227c74.101 0 134.387-60.043 134.387-133.848-.001-36.111-13.458-69.687-37.891-94.541zM136.25 395.646c-11.109 0-20.148-8.979-20.148-20.017s9.038-20.017 20.148-20.017c11.109 0 20.147 8.979 20.147 20.017s-9.038 20.017-20.147 20.017zm67.811-184.667c-11.292 0-20.482-9.249-20.482-20.659 0-11.411 9.189-20.653 20.482-20.653 11.306 0 20.495 9.24 20.495 20.653-.001 11.41-9.189 20.659-20.495 20.659zm103.728.155c-11.402 0-20.65-9.318-20.65-20.813 0-11.494 9.248-20.813 20.65-20.813 11.388 0 20.636 9.318 20.636 20.813 0 11.494-9.249 20.813-20.636 20.813zm67.961 184.512c-11.109 0-20.147-8.979-20.147-20.017s9.038-20.017 20.147-20.017 20.148 8.979 20.148 20.017-9.039 20.017-20.148 20.017z" fill="#000000" opacity="1" data-original="#000000" class=""></path></g></svg>