<svg xmlns="http://www.w3.org/2000/svg" version="1.1" xmlns:xlink="http://www.w3.org/1999/xlink" width="512" height="512" x="0" y="0" viewBox="0 0 511.999 511.999" style="enable-background:new 0 0 512 512" xml:space="preserve"><g><path d="M146.875 414.992c.799 45.687 23.598 69.006 42.793 80.542 22.64 13.609 48.567 16.465 66.331 16.465s43.689-2.856 66.33-16.465c19.195-11.537 41.994-34.855 42.793-80.542-25.282-11.766-65.97-18.913-109.124-18.913-43.153.001-83.84 7.146-109.123 18.913zm73.328 35.797c-9.694 0-17.583-8.022-17.583-17.916 0-9.896 7.889-17.911 17.583-17.911 9.707 0 17.594 8.014 17.594 17.911 0 9.896-7.888 17.916-17.594 17.916zm71.46-35.964c9.776 0 17.716 8.081 17.716 18.05 0 9.969-7.94 18.05-17.716 18.05-9.788 0-17.728-8.081-17.728-18.05 0-9.969 7.94-18.05 17.728-18.05zM464.858 13.184l-2.705-10.818L451.124.72c-1.805-.269-44.627-6.274-80.699 21.733-18.656 14.484-31.838 35.012-39.423 61.217C309.769 75.805 284.73 71.838 256 71.838c-28.707 0-53.756 3.966-75.001 11.841-7.584-26.209-20.767-46.739-39.425-61.225C105.5-5.553 62.679.45 60.875.721l-11.03 1.646-2.705 10.818c-.301 1.201-7.286 29.812-1.399 64.373 5.118 30.045 21.027 69.944 66.75 96.189-5.543 20.541-7.514 45.668-4.199 76.415 4.17 38.662 13.243 61.659 23.75 88.286 4.068 10.312 8.276 20.974 12.544 33.455.594 1.738 1.064 4.33 1.427 7.426 29.238-10.585 68.365-16.641 109.986-16.641 41.621 0 80.748 6.055 109.987 16.642.363-3.097.833-5.689 1.427-7.426 4.269-12.481 8.476-23.144 12.544-33.457 10.506-26.628 19.579-49.623 23.749-88.284 3.316-30.747 1.345-55.875-4.199-76.416 45.723-26.244 61.632-66.142 66.75-96.189 5.887-34.562-1.099-63.173-1.399-64.374zM204.344 287.15c-11.23 0-20.369-9.292-20.369-20.754 0-11.464 9.14-20.748 20.369-20.748 11.244 0 20.382 9.284 20.382 20.748-.001 11.462-9.138 20.754-20.382 20.754zm51.655-132.882-49.255 22.511-3.232-16.996c-.05-.264-4.535-23.889-8.074-45.781 16.925-5.831 37.147-8.772 60.561-8.772 23.417 0 43.635 2.941 60.56 8.777-3.538 21.891-8.023 45.511-8.073 45.775l-3.232 16.996-49.255-22.51zm51.502 133.037c-11.339 0-20.537-9.361-20.537-20.909 0-11.548 9.197-20.909 20.537-20.909 11.324 0 20.523 9.361 20.523 20.909 0 11.548-9.198 20.909-20.523 20.909z" fill="#000000" opacity="1" data-original="#000000"></path></g></svg>