<svg xmlns="http://www.w3.org/2000/svg" version="1.1" xmlns:xlink="http://www.w3.org/1999/xlink" width="512" height="512" x="0" y="0" viewBox="0 0 512 512" style="enable-background:new 0 0 512 512" xml:space="preserve" class=""><g><path d="M220.021 338.717c0-16.211 3.701-23.535 8.387-32.807 5.443-10.77 11.613-22.977 11.613-46.339 0-1.687-.036-3.309-.097-4.883-15.49-3.403-26.997-12.462-33.53-17.614 2.201 5.804 3.627 12.439 3.627 22.498 0 16.211-3.701 23.535-8.387 32.807-5.443 10.77-11.613 22.977-11.613 46.339 0 23.361 6.169 35.568 11.613 46.338 4.686 9.271 8.387 16.595 8.387 32.805s-3.701 23.533-8.387 32.804c-5.443 10.77-11.613 22.976-11.613 46.337 0 8.284 6.716 15 15 15s15-6.716 15-15c0-16.21 3.701-23.533 8.387-32.804 5.443-10.77 11.613-22.976 11.613-46.337s-6.169-35.568-11.613-46.337c-4.686-9.274-8.387-16.597-8.387-32.807zM142.968 273.031c0 16.211-3.701 23.535-8.387 32.807-5.443 10.77-11.613 22.978-11.613 46.339 0 8.284 6.716 15 15 15s15-6.716 15-15c0-16.211 3.701-23.535 8.388-32.807 5.443-10.77 11.613-22.978 11.612-46.339 0-9.683-1.062-17.446-2.691-23.989-7.476 3.781-16.974 6.866-29.118 7.283 1.133 4.517 1.809 9.802 1.809 16.706zM301.979 417.859c0-16.21 3.701-23.534 8.387-32.805 5.443-10.77 11.613-22.977 11.613-46.338 0-23.362-6.169-35.569-11.613-46.339-4.686-9.272-8.387-16.596-8.387-32.807 0-10.07 1.429-16.709 3.634-22.517-6.53 5.15-18.057 14.225-33.537 17.63a123.925 123.925 0 0 0-.098 4.887c0 23.362 6.169 35.569 11.613 46.339 4.686 9.272 8.387 16.596 8.387 32.807 0 16.21-3.701 23.534-8.387 32.805-5.443 10.77-11.613 22.977-11.613 46.337 0 23.361 6.169 35.567 11.613 46.337 4.686 9.271 8.387 16.594 8.387 32.804 0 8.284 6.716 15 15 15s15-6.716 15-15c0-23.361-6.169-35.567-11.613-46.337-4.685-9.27-8.386-16.593-8.386-32.803zM339.032 273.031c0 23.362 6.169 35.569 11.613 46.339 4.686 9.272 8.387 16.596 8.387 32.807 0 8.284 6.716 15 15 15s15-6.716 15-15c0-23.362-6.169-35.569-11.613-46.339-4.686-9.272-8.387-16.596-8.387-32.807 0-6.904.676-12.188 1.809-16.705-12.144-.416-21.642-3.497-29.119-7.277-1.629 6.54-2.69 14.301-2.69 23.982zM393.089 110.981c3.293 0 6.528.246 9.7.692-4.696-32.603-18.265-58.768-40.529-77.993C336.745 11.646 300.001 0 256 0s-80.745 11.646-106.261 33.68c-22.264 19.226-35.833 45.39-40.529 77.993a69.595 69.595 0 0 1 9.7-.692zM393.089 140.981H118.911c-21.748 0-39.378 17.63-39.378 39.378v10.463c0 6.454 4.438 12.024 10.702 13.576 19.273 4.776 22.788 21.98 48.115 21.98 29.409 0 29.409-23.197 58.819-23.197 29.411 0 29.411 23.197 58.822 23.197 29.41 0 29.41-23.197 58.82-23.197 29.414 0 29.414 23.197 58.828 23.197 25.332 0 28.848-17.206 48.125-21.981 6.265-1.552 10.703-7.122 10.703-13.576v-10.463c0-21.747-17.63-39.377-39.378-39.377z" fill="#000000" opacity="1" data-original="#000000" class=""></path></g></svg>