<svg xmlns="http://www.w3.org/2000/svg" version="1.1" xmlns:xlink="http://www.w3.org/1999/xlink" width="512" height="512" x="0" y="0" viewBox="0 0 512.001 512.001" style="enable-background:new 0 0 512 512" xml:space="preserve" class=""><g><path d="m476.23 13.352-2.71-10.834L462.474.87c-2.339-.349-57.865-8.112-102.366 30.242-30.694 26.456-47.989 67.452-51.569 122.034-15.677-3.437-33.202-5.169-52.538-5.169s-36.861 1.732-52.539 5.169c-3.582-54.582-20.876-95.578-51.569-122.034C107.395-7.242 51.87.522 49.528.871L38.482 2.518l-2.71 10.834c-.377 1.509-9.147 37.428-1.332 80.565 6.773 37.385 27.444 86.782 86.366 118.119-10.615 21.798-13.982 48.609-9.993 80.074 4.18 32.963 13.644 53.37 23.664 74.976 3.969 8.559 8.075 17.407 12.222 27.724 1.811 4.507 2.458 20.131 1.904 31.328l-.021.841c0 32.796 14.932 57.766 43.181 72.209 15.576 7.965 32.723 11.452 47.516 12.814v-69.407c-20.138-9.618-39.731-33.599-39.731-52.717 0-32.22 35.338-32.22 56.452-32.22 21.113 0 56.452 0 56.452 32.22 0 19.119-19.592 43.099-39.731 52.717v69.407c14.793-1.361 31.94-4.849 47.516-12.814 28.249-14.443 43.181-39.413 43.181-72.209l-.021-.833c-.554-11.204.091-26.829 1.903-31.335 4.148-10.316 8.251-19.164 12.221-27.722 10.021-21.605 19.485-42.011 23.665-74.978 3.99-31.464.622-58.274-9.993-80.074 58.923-31.337 79.593-80.733 86.367-118.119 7.816-43.137-.952-79.058-1.33-80.566zM204.253 287.587c-11.251 0-20.406-9.306-20.406-20.785 0-11.48 9.155-20.778 20.406-20.778 11.264 0 20.418 9.298 20.418 20.778.001 11.48-9.153 20.785-20.418 20.785zm103.342.155c-11.359 0-20.573-9.375-20.573-20.94s9.214-20.94 20.573-20.94c11.344 0 20.559 9.375 20.559 20.94s-9.213 20.94-20.559 20.94z" fill="#000000" opacity="1" data-original="#000000" class=""></path></g></svg>