<svg xmlns="http://www.w3.org/2000/svg" version="1.1" xmlns:xlink="http://www.w3.org/1999/xlink" width="512" height="512" x="0" y="0" viewBox="0 0 512 512" style="enable-background:new 0 0 512 512" xml:space="preserve"><g><path d="m484.661 159.342 14.322-14.898-13.156-11.523c-33.716-29.527-67.853-33.598-99.721-33.598a112.774 112.774 0 0 0-46.799 10.18c-22.215-11.267-50.1-16.986-83.273-16.986h-.061c-33.174 0-61.063 5.719-83.278 16.986a112.759 112.759 0 0 0-46.799-10.181c-31.868 0-66.005 4.07-99.721 33.598l-13.156 11.523 14.322 14.898C14.868 171.349 0 191.878 0 221.516v20.618l19.485-4.143c4.779 30.253 19.84 48.841 32.833 59.589 14.104 11.666 32.226 19.418 52.363 22.608 3.467 21.212 10.902 40.231 24.309 56.053 24.656 29.098 66.203 43.243 127.01 43.243s102.354-14.145 127.011-43.243c13.407-15.822 20.843-34.841 24.309-56.053 20.137-3.19 38.259-10.942 52.363-22.608 12.993-10.746 28.053-29.335 32.833-59.588L512 242.135v-20.618c0-29.639-14.868-50.168-27.339-62.175zm-291.155 67.886c-9.125 0-16.55-7.453-16.55-16.647 0-9.194 7.425-16.64 16.55-16.64 9.136 0 16.56 7.446 16.56 16.64s-7.424 16.647-16.56 16.647zm102.067 113.891c-8.38 9.641-21.325 14.328-39.573 14.328s-31.191-4.687-39.573-14.328c-13.765-15.835-11.497-41.401-7.699-68.423 3.683-26.187 20.028-40.029 47.265-40.029h.015c27.24 0 43.581 13.842 47.263 40.029 3.799 27.022 6.067 52.586-7.698 68.423zm22.796-113.767c-9.213 0-16.686-7.509-16.686-16.77 0-9.262 7.473-16.77 16.686-16.77 9.202 0 16.674 7.509 16.674 16.77.001 9.262-7.472 16.77-16.674 16.77z" fill="#000000" opacity="1" data-original="#000000"></path></g></svg>