<svg xmlns="http://www.w3.org/2000/svg" version="1.1" xmlns:xlink="http://www.w3.org/1999/xlink" width="512" height="512" x="0" y="0" viewBox="0 0 512 512" style="enable-background:new 0 0 512 512" xml:space="preserve" class=""><g><path d="M218.406 197.196a15.108 15.108 0 0 0-10.61-4.391c-3.951 0-7.81 1.601-10.6 4.391-2.8 2.789-4.4 6.66-4.4 10.6 0 3.95 1.601 7.82 4.4 10.61a15.085 15.085 0 0 0 10.6 4.39c3.95 0 7.82-1.6 10.61-4.39s4.399-6.66 4.399-10.61c0-3.939-1.609-7.811-4.399-10.6zM314.805 197.195a15.115 15.115 0 0 0-10.609-4.4c-3.95 0-7.811 1.61-10.602 4.4a15.103 15.103 0 0 0-4.398 10.609c0 3.94 1.609 7.811 4.398 10.601a15.093 15.093 0 0 0 10.602 4.39c3.95 0 7.819-1.6 10.609-4.39a15.112 15.112 0 0 0 4.391-10.601c0-3.949-1.602-7.82-4.391-10.609z" fill="#000000" opacity="1" data-original="#000000" class=""></path><path d="M512 175.667C512 78.804 433.196 0 336.333 0 308.327 0 280.732 6.689 256 19.414 231.267 6.69 203.672 0 175.666 0 78.804 0 0 78.804 0 175.667c0 41.017 14.279 80.539 40.34 111.998a211.995 211.995 0 0 0-.174 8.502c0 28.735 11.632 58.149 34.573 87.426 17.522 22.36 41.763 44.814 72.049 66.736 50.877 36.827 100.975 59.418 103.082 60.361a14.995 14.995 0 0 0 12.26 0c2.107-.943 52.205-23.534 103.082-60.361 30.286-21.923 54.526-44.376 72.047-66.736 22.942-29.276 34.574-58.69 34.574-87.426 0-2.779-.059-5.622-.176-8.504C497.718 256.202 512 216.678 512 175.667zM256 385.6c-13.87 0-25.773-8.552-30.732-20.656 12.129-3.494 22.772-10.528 30.732-19.908 7.96 9.38 18.603 16.414 30.732 19.908C281.773 377.048 269.87 385.6 256 385.6zm82.983-88.108a14.991 14.991 0 0 0-1.584 6.708c0 18.307-14.894 33.2-33.199 33.2-17.068 0-31.165-12.949-32.994-29.539l5.817-10.075a14.998 14.998 0 0 0-12.99-22.5h-16.066a15.002 15.002 0 0 0-12.991 22.5l5.818 10.076c-1.83 16.589-15.926 29.538-32.994 29.538-18.307 0-33.2-14.894-33.2-33.2 0-2.329-.542-4.625-1.584-6.708l-46.545-93.093c1.788-43.313 37.585-77.999 81.329-77.999 14.313 0 28.383 3.764 40.689 10.883a14.997 14.997 0 0 0 15.022-.001c12.306-7.119 26.376-10.882 40.69-10.882 43.744 0 79.54 34.687 81.328 77.999l-46.546 93.093z" fill="#000000" opacity="1" data-original="#000000" class=""></path></g></svg>