<svg xmlns="http://www.w3.org/2000/svg" version="1.1" xmlns:xlink="http://www.w3.org/1999/xlink" width="512" height="512" x="0" y="0" viewBox="0 0 512 512" style="enable-background:new 0 0 512 512" xml:space="preserve"><g><path d="M223.192 361.128c-8.884 0-16.115 7.265-16.115 16.235 0 8.969 7.23 16.24 16.115 16.24 8.895 0 16.125-7.27 16.125-16.24 0-8.97-7.229-16.235-16.125-16.235zM288.685 361.002c-8.971 0-16.247 7.325-16.247 16.362s7.277 16.362 16.247 16.362c8.96 0 16.236-7.325 16.236-16.362-.001-9.037-7.278-16.362-16.236-16.362zM214.308 253.817c0-11.401-9.188-20.635-20.494-20.635-11.292 0-20.482 9.234-20.482 20.635 0 11.4 9.189 20.641 20.482 20.641 11.306 0 20.494-9.241 20.494-20.641zM318.03 233.022c-11.402 0-20.65 9.309-20.65 20.795 0 11.485 9.248 20.795 20.65 20.795 11.387.001 20.636-9.309 20.636-20.795 0-11.485-9.249-20.795-20.636-20.795z" fill="#000000" opacity="1" data-original="#000000"></path><path d="M492.436 200.902c-11.511-13.037-26.695-21.699-43.511-25.03C421.042 96.568 345.096 39.526 255.999 39.526S90.956 96.568 63.073 175.871c-16.817 3.331-32 11.993-43.511 25.03C5.696 216.606-1.191 236.747.169 257.616c2.543 38.99 33.522 69.516 71.465 72.837a203.952 203.952 0 0 0 97.494 96.448c19.023 27.503 50.865 45.573 86.873 45.573 36.007 0 67.85-18.069 86.872-45.573a203.941 203.941 0 0 0 97.494-96.449c37.94-3.321 68.921-33.85 71.465-72.836 1.359-20.867-5.529-41.01-19.396-56.714zm-159.434 110.43-23.261 3.159 10.618 20.936c5.079 10.015 7.654 20.823 7.654 32.123 0 39.443-32.306 71.533-72.015 71.533s-72.015-32.09-72.015-71.534c0-11.301 2.574-22.109 7.653-32.123l10.617-20.936-23.26-3.159c-29.623-4.023-51.963-29.491-51.963-59.239 0-32.974 27.013-59.8 60.217-59.8 22.92 0 43.554 12.65 53.851 33.013l14.898 29.464 14.899-29.463c10.298-20.363 30.931-33.013 53.851-33.013 33.204 0 60.217 26.826 60.217 59.8.003 29.749-22.336 55.216-51.961 59.239z" fill="#000000" opacity="1" data-original="#000000"></path></g></svg>