<svg xmlns="http://www.w3.org/2000/svg" version="1.1" xmlns:xlink="http://www.w3.org/1999/xlink" width="512" height="512" x="0" y="0" viewBox="0 0 512 512" style="enable-background:new 0 0 512 512" xml:space="preserve"><g><path d="m499.059 323.505-7.52-32.532-70.047 16.19c1.513-11.983 2.297-24.042 2.297-36.037 0-18.334-1.801-35.785-5.316-52.19 29.365-12.101 55.143-28.885 69.372-45.529 17.524-20.498 25.985-46.568 23.822-73.406-2.163-26.862-14.706-51.268-35.316-68.724C433.879-4.694 369.917.439 333.774 42.718c-9.546 11.168-18.318 27.381-25.379 46.649-16.512-5.419-34.132-8.243-52.395-8.243s-35.885 2.824-52.395 8.243c-7.06-19.267-15.832-35.481-25.379-46.649C142.082.44 78.123-4.695 35.648 31.277 15.038 48.733 2.494 73.141.332 100.001c-2.161 26.838 6.297 52.907 23.822 73.406 14.229 16.644 40.006 33.427 69.372 45.529-3.515 16.405-5.316 33.856-5.316 52.189 0 11.995.785 24.053 2.297 36.037l-70.047-16.19-7.52 32.532 84.337 19.492c4.349 17.217 10.201 33.953 17.421 49.752L12.941 416.27l7.52 32.532 110.634-25.57a242.533 242.533 0 0 0 4.218 6.509c32.548 48.323 75.409 74.934 120.687 74.934 45.278 0 88.138-26.612 120.687-74.934a241.67 241.67 0 0 0 4.218-6.509l110.634 25.57 7.52-32.532-101.758-23.519c7.221-15.799 13.072-32.535 17.421-49.752l84.337-19.494zM183.578 220.372c0-11.41 9.189-20.65 20.482-20.65 11.306 0 20.494 9.24 20.494 20.65 0 11.408-9.188 20.656-20.494 20.656-11.292 0-20.482-9.248-20.482-20.656zM256 413.29c-29.895 0-54.216-19.471-54.216-43.403s24.322-43.403 54.216-43.403 54.216 19.471 54.216 43.403S285.895 413.29 256 413.29zm51.785-172.107c-11.402 0-20.65-9.317-20.65-20.81 0-11.494 9.248-20.81 20.65-20.81 11.387 0 20.635 9.317 20.635 20.81.002 11.493-9.247 20.81-20.635 20.81z" fill="#000000" opacity="1" data-original="#000000"></path></g></svg>