<svg xmlns="http://www.w3.org/2000/svg" version="1.1" xmlns:xlink="http://www.w3.org/1999/xlink" width="512" height="512" x="0" y="0" viewBox="0 0 512 512" style="enable-background:new 0 0 512 512" xml:space="preserve" class=""><g><path d="M192.8 445.6V497c0 8.283 6.716 15 15 15h96.4c8.284 0 15-6.717 15-15v-51.4H192.8zM463.8 143.533C463.8 64.389 399.41 0 320.267 0 297.902 0 275.856 5.223 256 15.167 236.145 5.223 214.099 0 191.733 0 112.589 0 48.2 64.389 48.2 143.533c0 22.329 5.228 44.362 15.184 64.233C53.428 227.633 48.2 249.69 48.2 272.067c0 79.145 64.389 143.533 143.533 143.533H320.267c79.143 0 143.533-64.389 143.533-143.533.002-22.377-5.228-44.436-15.184-64.304a143.53 143.53 0 0 0 15.184-64.23zm-138.072-26.677a15.124 15.124 0 0 1 10.609-4.391c3.94 0 7.81 1.6 10.601 4.391 2.8 2.8 4.399 6.67 4.399 10.609 0 3.951-1.6 7.811-4.399 10.61a15.108 15.108 0 0 1-10.601 4.39c-3.95 0-7.82-1.6-10.609-4.39-2.79-2.8-4.401-6.66-4.401-10.61-.001-3.939 1.61-7.81 4.401-10.609zm-160.671.009c2.789-2.8 6.66-4.4 10.61-4.4s7.82 1.6 10.61 4.4c2.79 2.79 4.39 6.65 4.39 10.6 0 3.951-1.6 7.82-4.39 10.61a15.131 15.131 0 0 1-10.61 4.39c-3.939 0-7.81-1.6-10.61-4.39a15.111 15.111 0 0 1-4.39-10.61c0-3.95 1.6-7.81 4.39-10.6zM381.242 294.33l-120.5 40.166a14.992 14.992 0 0 1-9.485 0l-120.5-40.166A15 15 0 0 1 120.5 280.1c0-18.626 17.882-35.346 28.54-43.654 14.604-11.382 32.853-20.764 52.295-26.982C204.986 186.477 228.109 168.7 256 168.7s51.014 17.776 54.665 40.764c19.443 6.217 37.693 15.6 52.296 26.982 10.658 8.308 28.539 25.026 28.539 43.654a15 15 0 0 1-10.258 14.23z" fill="#000000" opacity="1" data-original="#000000"></path></g></svg>