<svg xmlns="http://www.w3.org/2000/svg" version="1.1" xmlns:xlink="http://www.w3.org/1999/xlink" width="512" height="512" x="0" y="0" viewBox="0 0 512 512" style="enable-background:new 0 0 512 512" xml:space="preserve" class=""><g><path d="M157.082 237.537c-15.334 0-27.813 12.68-27.813 28.339 0 15.656 12.479 28.347 27.813 28.347 15.353 0 27.83-12.691 27.831-28.347 0-15.659-12.476-28.339-27.831-28.339z" fill="#000000" opacity="1" data-original="#000000" class=""></path><path d="M462.925 149.941c17.064-17.956 28.133-34.138 32.899-48.093 16.956-49.646-25.022-88.552-26.818-90.185L456.174 0l-75.696 89.919C344.646 66.41 301.885 52.724 256 52.724S167.355 66.41 131.523 89.919L55.825 0 42.994 11.664c-1.795 1.631-43.773 40.538-26.817 90.185 7.756 22.71 31.014 47.06 45.224 60.416-21.425 34.965-33.804 76.102-33.804 120.097C27.597 408.986 130.058 512 255.999 512s228.403-103.014 228.403-229.637c0-44.01-12.388-85.163-33.827-120.135a320.185 320.185 0 0 0 12.35-12.287zM354.908 361.469c-19.745 0-37.906-7.811-52.262-20.834-5.507 22.421-23.442 57.454-31.927 73.317l-14.72 27.521-14.72-27.521c-8.485-15.863-26.421-50.896-31.926-73.317-14.356 13.023-32.517 20.834-52.262 20.834-46.319 0-84.003-42.881-84.003-95.589s37.683-95.589 84.003-95.589c46.319 0 84.003 42.881 84.003 95.589 0 6.146-.532 12.151-1.511 17.978 5.128-1.866 10.655-2.888 16.417-2.888s11.289 1.022 16.417 2.888a108.517 108.517 0 0 1-1.511-17.978c0-52.707 37.683-95.589 84.003-95.589s84.003 42.881 84.003 95.589-37.684 95.589-84.004 95.589z" fill="#000000" opacity="1" data-original="#000000" class=""></path><path d="M354.9 237.537c-15.334 0-27.813 12.68-27.813 28.339 0 15.656 12.479 28.347 27.813 28.347 15.354 0 27.831-12.691 27.831-28.347 0-15.659-12.477-28.339-27.831-28.339z" fill="#000000" opacity="1" data-original="#000000" class=""></path></g></svg>