<svg xmlns="http://www.w3.org/2000/svg" version="1.1" xmlns:xlink="http://www.w3.org/1999/xlink" width="512" height="512" x="0" y="0" viewBox="0 0 512.001 512.001" style="enable-background:new 0 0 512 512" xml:space="preserve"><g><path d="M179.799 188.548c-11.292 0-20.481 9.231-20.481 20.631 0 11.397 9.189 20.637 20.481 20.637 11.306 0 20.494-9.24 20.494-20.637-.001-11.4-9.188-20.631-20.494-20.631zM332.202 188.548c-11.306 0-20.494 9.231-20.494 20.631 0 11.397 9.188 20.637 20.494 20.637 11.292 0 20.481-9.24 20.481-20.637 0-11.4-9.189-20.631-20.481-20.631z" fill="#000000" opacity="1" data-original="#000000"></path><path d="M494.858 79.473C481.22 61.1 461.306 49.157 438.782 45.844c-30.212-4.441-60.507 7.986-79.449 31.528-28.022-10.925-62.33-16.325-103.331-16.325-41.002 0-75.309 5.4-103.331 16.324-18.943-23.542-49.238-35.97-79.452-31.527C50.696 49.157 30.781 61.1 17.143 79.473 3.272 98.159-2.469 121.209.976 144.377c4.767 32.057 26.28 58.125 55.484 68.975-2.993 22.508-3.711 45.907-3.711 68.999 0 58.066 19.72 105.863 57.028 138.222 32.058 27.806 76.59 43.732 129.528 46.474v-91.593c-20.223-9.533-39.921-33.401-39.921-52.423 0-32.038 35.441-32.038 56.616-32.038s56.616 0 56.616 32.038c0 19.021-19.698 42.889-39.921 52.423v91.593c52.938-2.742 97.47-18.668 129.528-46.474 37.309-32.359 57.028-80.157 57.028-138.222 0-23.093-.718-46.491-3.711-68.999 29.204-10.849 50.717-36.918 55.484-68.974 3.446-23.169-2.296-46.219-16.166-64.905zM219.019 248.242c-16.021 15.93-36.224 24.262-54.585 24.262-13.316 0-25.66-4.379-34.749-13.416-8.906-8.857-13.614-20.848-13.614-34.677 0-19.007 8.938-38.794 24.522-54.291 27.637-27.483 67.712-32.349 89.334-10.846 8.906 8.857 13.614 20.848 13.614 34.677-.002 19.006-8.939 38.794-24.522 54.291zm163.298 10.847c-9.088 9.036-21.435 13.416-34.749 13.416-18.363 0-38.563-8.33-54.585-24.262-15.583-15.497-24.521-35.285-24.521-54.291 0-13.829 4.708-25.819 13.614-34.677 21.622-21.502 61.696-16.636 89.334 10.846 15.583 15.497 24.521 35.284 24.522 54.291-.001 13.829-4.709 25.819-13.615 34.677z" fill="#000000" opacity="1" data-original="#000000"></path></g></svg>