<svg xmlns="http://www.w3.org/2000/svg" version="1.1" xmlns:xlink="http://www.w3.org/1999/xlink" width="512" height="512" x="0" y="0" viewBox="0 0 512.001 512.001" style="enable-background:new 0 0 512 512" xml:space="preserve"><g><path d="M256.001 0C105.327 0 43.866 103.75 43.866 358.104v7.883l6.087 5.008c2.121 1.745 53.599 43.797 197.072 135.282l8.975 5.724 8.975-5.724c143.473-91.485 194.952-133.536 197.072-135.282l6.088-5.008v-7.883C468.137 103.75 406.677 0 256.001 0zm-102.81 140.426c0-11.42 9.102-20.67 20.286-20.67 11.199 0 20.298 9.249 20.298 20.67 0 11.419-9.1 20.676-20.298 20.676-11.184 0-20.286-9.257-20.286-20.676zm108.58 272.118-5.77 5.518-5.77-5.518c-2.63-2.515-64.409-62.511-64.409-141.335 0-41.996 17.98-70.745 33.064-87.469 16.343-18.117 32.735-26.311 33.425-26.65l3.69-1.819 3.69 1.819c.689.341 17.082 8.533 33.424 26.65 15.084 16.722 33.064 45.472 33.064 87.469.001 78.823-61.778 138.819-64.408 141.335zm76.602-251.288c-11.292 0-20.453-9.326-20.453-20.83s9.16-20.83 20.453-20.83c11.279 0 20.439 9.326 20.439 20.83s-9.161 20.83-20.439 20.83z" fill="#000000" opacity="1" data-original="#000000"></path></g></svg>