<svg xmlns="http://www.w3.org/2000/svg" version="1.1" xmlns:xlink="http://www.w3.org/1999/xlink" width="512" height="512" x="0" y="0" viewBox="0 0 512 512" style="enable-background:new 0 0 512 512" xml:space="preserve" class=""><g><path d="M344.445 193.916c-11.306 0-20.494 9.242-20.494 20.653 0 11.41 9.188 20.659 20.494 20.659 11.292 0 20.482-9.249 20.482-20.659 0-11.413-9.189-20.653-20.482-20.653zM167.568 193.916c-11.306 0-20.494 9.242-20.494 20.653 0 11.41 9.188 20.659 20.494 20.659 11.292 0 20.482-9.249 20.482-20.659 0-11.413-9.189-20.653-20.482-20.653z" fill="#000000" opacity="1" data-original="#000000" class=""></path><path d="M436.992 75.724C388.644 27.595 324.365 1.089 256 1.089S123.356 27.595 75.008 75.724C26.638 123.873 0 187.896 0 256v254.911h512V256c0-68.104-26.638-132.127-75.008-180.276zM405.777 477.52H106.223V221.423c0-40.616 33.229-73.66 74.073-73.66 24.914 0 48.02 12.363 61.806 33.072L256 201.71l13.897-20.875c13.786-20.708 36.892-33.072 61.806-33.072 40.844 0 74.073 33.044 74.073 73.66V477.52z" fill="#000000" opacity="1" data-original="#000000" class=""></path><path d="M190.986 313.846 256 416.616l65.014-102.77L256 255.644z" fill="#000000" opacity="1" data-original="#000000" class=""></path></g></svg>