<svg xmlns="http://www.w3.org/2000/svg" version="1.1" xmlns:xlink="http://www.w3.org/1999/xlink" width="512" height="512" x="0" y="0" viewBox="0 0 512 512" style="enable-background:new 0 0 512 512" xml:space="preserve"><g><path d="m510.273 52.859-1.615-12.456-12.415-1.899c-3.87-.591-91.409-13.354-154.661 28.866-27.381-13.385-56.17-20.181-85.582-20.181s-58.201 6.796-85.582 20.181C107.167 25.147 19.624 37.913 15.757 38.504L3.341 40.403 1.727 52.859c-.589 4.543-13.733 111.705 42.885 170.958-5.274 19.646-8.035 39.756-8.035 59.711 0 57.803 22.645 106.929 65.485 142.063 39.445 32.35 94.115 50.167 153.938 50.167 59.824 0 114.493-17.817 153.938-50.167 42.841-35.135 65.486-84.26 65.486-142.063 0-19.955-2.761-40.067-8.035-59.713 56.615-59.252 43.473-166.413 42.884-170.956zM307.781 169.606c11.386 0 20.633 9.309 20.633 20.795 0 11.484-9.247 20.794-20.633 20.794-11.4 0-20.647-9.31-20.647-20.794 0-11.486 9.247-20.795 20.647-20.795zm-103.713.16c11.306 0 20.491 9.232 20.491 20.634 0 11.399-9.187 20.639-20.491 20.639-11.29 0-20.479-9.241-20.479-20.639 0-11.402 9.188-20.634 20.479-20.634zM256.001 405.7c-49.426 0-89.637-31.597-89.637-70.433s40.21-70.433 89.637-70.433c49.426 0 89.637 31.597 89.637 70.433s-40.21 70.433-89.637 70.433z" fill="#000000" opacity="1" data-original="#000000"></path><path d="M231.02 322.88c-6.779 0-12.294 5.542-12.294 12.387 0 6.843 5.516 12.391 12.294 12.391 6.787 0 12.302-5.548 12.302-12.391-.001-6.844-5.516-12.387-12.302-12.387zM280.891 322.783c-6.844 0-12.395 5.589-12.395 12.484s5.552 12.483 12.395 12.483c6.835 0 12.387-5.589 12.387-12.483s-5.552-12.484-12.387-12.484z" fill="#000000" opacity="1" data-original="#000000"></path></g></svg>