<svg xmlns="http://www.w3.org/2000/svg" version="1.1" xmlns:xlink="http://www.w3.org/1999/xlink" width="512" height="512" x="0" y="0" viewBox="0 0 512.001 512.001" style="enable-background:new 0 0 512 512" xml:space="preserve"><g><path d="M511.897 130.152c1.116-23.147-6.729-45.345-22.093-62.507-15.423-17.229-36.567-27.323-59.535-28.419-28.592-1.347-55.792 12.04-72.687 34.551a216.31 216.31 0 0 0-15.304-8.35c-27.589-13.614-56.616-20.517-86.277-20.517s-58.69 6.902-86.277 20.517a216.288 216.288 0 0 0-15.303 8.35c-16.896-22.515-44.1-35.907-72.687-34.551-22.968 1.096-44.111 11.19-59.534 28.419C6.834 84.806-1.012 107.005.105 130.152c1.585 32.868 20.967 61.285 49.668 74.707-4.973 14.38-8.598 29.115-10.762 43.951l-18.453-4.262-7.514 32.534 23.605 5.452c.186 29.924 6.461 57.501 18.495 81.986l-42.101 9.724 7.514 32.534 53.363-12.325c8.12 10.39 17.525 19.997 28.182 28.737 35.734 29.305 83.967 46.679 137.205 49.682V368.134c-20.215-9.533-39.903-33.393-39.903-52.41 0-32.032 35.429-32.032 56.598-32.032s56.598 0 56.598 32.032c0 19.016-19.687 42.875-39.903 52.41V472.87c53.237-3.003 101.467-20.378 137.2-49.682 10.657-8.74 20.064-18.347 28.182-28.738l53.367 12.326 7.514-32.534-42.104-9.725c12.033-24.484 18.308-52.059 18.494-81.983l23.61-5.453-7.514-32.534-18.458 4.263c-2.165-14.837-5.79-29.571-10.763-43.952 28.704-13.421 48.085-41.838 49.672-74.706zm-307.813 105.06c-11.287 0-20.473-9.238-20.473-20.632 0-11.396 9.186-20.626 20.473-20.626 11.302 0 20.486 9.229 20.486 20.626-.001 11.393-9.184 20.632-20.486 20.632zm103.683.153c-11.396 0-20.641-9.306-20.641-20.787s9.245-20.787 20.641-20.787c11.383 0 20.627 9.306 20.627 20.787.001 11.481-9.244 20.787-20.627 20.787z" fill="#000000" opacity="1" data-original="#000000"></path></g></svg>