<svg xmlns="http://www.w3.org/2000/svg" version="1.1" xmlns:xlink="http://www.w3.org/1999/xlink" width="512" height="512" x="0" y="0" viewBox="0 0 512 512" style="enable-background:new 0 0 512 512" xml:space="preserve"><g><path d="m472.984 29.925-33.191-3.655c-.441 4-4.349 13.24-11.658 21.257-1.727 1.894-3.808 3.899-6.191 5.739 2.069-21.071 2.07-39.779 2.069-52.341V0h-33.391v.928c.002 18.626-.009 52.405-7.708 84.923-14.792-6.426-24.712-24.784-25.454-31.534l-33.191 3.654c2.009 18.241 19.521 48.91 47.967 59.665-2.448 5.304-5.24 10.376-8.383 15.156-36.302-16.452-78.701-18.415-107.853-18.415s-71.551 1.963-107.852 18.415c-3.143-4.781-5.936-9.854-8.383-15.157 28.444-10.755 45.958-41.426 47.965-59.665l-33.191-3.654c-.441 4-4.349 13.24-11.66 21.259-3.368 3.694-8.061 7.825-13.787 10.302-7.706-32.525-7.717-66.32-7.715-84.95V0H87.986v.924c-.001 12.563-.001 31.272 2.069 52.345-2.383-1.841-4.462-3.847-6.191-5.742C76.555 39.51 72.647 30.27 72.206 26.27l-33.19 3.654c2.219 20.155 23.374 55.48 57.293 62.345 4.668 20.104 11.957 40.316 23.332 57.961-9.045 7.369-16.681 15.861-22.822 25.416-12.559 19.544-18.925 43.614-18.925 71.541 0 40.668 9.352 65.627 21.191 97.228 3.948 10.538 8.031 21.435 12.26 34.176 10.968 33.048 24.23 67.125 46.798 92.478C182.658 498.612 214.668 512 255.999 512c41.332 0 73.342-13.388 97.858-40.929 22.569-25.353 35.83-59.43 46.799-92.478 4.228-12.74 8.311-23.637 12.259-34.174 11.841-31.6 21.192-56.56 21.192-97.23 0-27.927-6.368-51.998-18.926-71.541-6.14-9.555-13.776-18.047-22.822-25.416 11.374-17.645 18.662-37.857 23.332-57.961 33.915-6.868 55.074-42.192 57.293-62.346zM181.252 251.96c0-11.864 9.484-21.471 21.139-21.471 11.669 0 21.152 9.608 21.152 21.471 0 11.862-9.483 21.477-21.152 21.477-11.655 0-21.139-9.616-21.139-21.477zm74.747 186.903c-30.708 0-55.69-20.096-55.69-44.798s24.982-44.798 55.69-44.798 55.69 20.096 55.69 44.798c0 24.701-24.982 44.798-55.69 44.798zm53.45-165.266c-11.768 0-21.313-9.687-21.313-21.638 0-11.951 9.545-21.638 21.313-21.638 11.753 0 21.298 9.687 21.298 21.638 0 11.951-9.545 21.638-21.298 21.638z" fill="#000000" opacity="1" data-original="#000000"></path></g></svg>