<svg xmlns="http://www.w3.org/2000/svg" version="1.1" xmlns:xlink="http://www.w3.org/1999/xlink" width="512" height="512" x="0" y="0" viewBox="0 0 512.001 512.001" style="enable-background:new 0 0 512 512" xml:space="preserve" class=""><g><path d="M504.586 63.593c-15.042-25.761-48.334-34.558-74.213-19.609-15.091 8.717-29.766 23.327-41.62 37.188-6.761-5.273-14.278-9.943-22.548-13.963C329.602 49.414 285.778 47.355 256 47.355c-29.779 0-73.602 2.059-110.205 19.854-8.269 4.02-15.786 8.69-22.548 13.963-11.853-13.86-26.529-28.47-41.618-37.185C55.748 29.032 22.456 37.83 7.413 63.594c-7.31 12.52-9.296 27.104-5.593 41.065 3.71 13.983 12.697 25.697 25.306 32.981 15.54 8.976 36.283 14.482 54.795 17.84-.969 7.013-1.475 14.32-1.475 21.93 0 39.799 9.219 64.204 20.889 95.102 3.884 10.284 7.901 20.918 12.059 33.348 4.651 13.9 7.322 29.129 10.15 45.251 5.125 29.221 10.426 59.435 28.584 83.299 20.937 27.517 54.914 40.893 103.871 40.893s82.934-13.377 103.871-40.893c18.157-23.863 23.458-54.078 28.584-83.299 2.828-16.122 5.499-31.351 10.15-45.251 4.158-12.43 8.175-23.064 12.059-33.348 11.671-30.899 20.889-55.304 20.889-95.102 0-7.61-.505-14.918-1.475-21.93 18.512-3.359 39.254-8.864 54.795-17.84 12.609-7.283 21.596-18.996 25.306-32.981 3.705-13.961 1.718-28.545-5.592-41.066zM184.734 192.504c-11.291 0-20.481-9.241-20.481-20.641 0-11.401 9.189-20.634 20.481-20.634 11.306 0 20.493 9.233 20.493 20.634 0 11.399-9.187 20.641-20.493 20.641zM256 394.919c-31.233 0-56.642-25.293-56.642-56.383 0-27.579 44.05-123.102 49.073-133.905L256 188.354l7.569 16.277c5.023 10.801 49.073 106.324 49.073 133.905 0 31.091-25.409 56.383-56.642 56.383zm71.112-202.261c-11.401 0-20.649-9.31-20.649-20.796s9.248-20.796 20.649-20.796c11.387 0 20.634 9.31 20.634 20.796s-9.247 20.796-20.634 20.796z" fill="#000000" opacity="1" data-original="#000000" class=""></path></g></svg>