<svg xmlns="http://www.w3.org/2000/svg" version="1.1" xmlns:xlink="http://www.w3.org/1999/xlink" width="512" height="512" x="0" y="0" viewBox="0 0 512 512" style="enable-background:new 0 0 512 512" xml:space="preserve"><g><path d="M173.915 264.806c-.271-11.675-7.333-30.726-22.226-59.955l-.048-.095-.034-.067a99.305 99.305 0 0 1-.281-.566c-1.639-3.355-3.482-7.323-5.547-11.946l-12.461-5.566a15 15 0 0 0-15.688 2.147c-19.453 16.122-30.61 39.844-30.61 65.083s11.157 48.961 30.61 65.083a14.997 14.997 0 0 0 15.688 2.147l24.505-10.945c1.39-3.154 2.74-6.174 4.041-9.084 8.719-19.495 12.249-27.746 12.051-36.236z" fill="#000000" opacity="1" data-original="#000000"></path><path d="M341.19 358.267c-2.926-4.457-7.792-6.881-12.759-6.881-3.784 0-7.625 1.406-10.713 4.392-5.202 5.031-5.843 13.069-2.03 19.219 11.088 17.884 7.254 39.1-9.379 51.681-6.338 4.793-14.967 7.468-23.544 7.468-2.025 0-4.045-.149-6.033-.454-6.712-1.03-16.193-4.338-23.247-14.248-5.164-7.253-7.172-16.622-5.654-26.38 2.012-12.93 10.096-26.516 23.377-39.289 6.256-6.017 12.194-11.794 17.773-17.419a355.158 355.158 0 0 1-11.12-10.222c-17.462-16.252-37.622-48.788-37.14-87.201.312-24.831 9.007-48.007 25.899-69.182-27.271-4.319-48.244-27.823-48.595-56.208-.103-8.317 6.295-15.51 14.61-15.719 8.46-.212 15.385 6.583 15.385 14.995 0 15.245 12.403 27.648 27.648 27.648 9.781 0 18.642-5.01 23.702-13.403 4.115-6.824 12.85-9.241 19.885-5.5l65.919 35.033c7.732 4.109 17.331 1.247 21.551-6.425l16.364-29.756c4.006-7.285 1.438-16.436-5.772-20.574L324.84 46.775l-6.939-34.531A15.249 15.249 0 0 0 302.951 0h-29.468c-83.706 0-140.382 85.334-107.867 162.467 4.933 11.701 9.303 21.609 12.692 28.541l.112.225c17.474 34.298 25.097 56.093 25.487 72.877.362 15.593-5.29 28.235-14.656 49.18-4.525 10.122-9.654 21.594-15.06 35.665-.061.156-.117.312-.172.47-7.695 22.18-11.899 44.103-10.323 64.985 1.794 54.211 44.713 97.59 97.405 97.59 52.528 0 95.462-43.618 97.504-97.595-.868-19.906-6.878-40.091-17.415-56.138z" fill="#000000" opacity="1" data-original="#000000"></path><path d="M306.47 171.41c-23.416 20.64-35.443 43.484-35.751 67.899-.386 30.723 17.922 55.908 27.656 64.933l.236.224c.076.073 5.004 4.832 10.755 9.868 13.976-16.582 23.928-32.814 28.495-51.234 7.157-28.864.634-59.574-21.774-99.688a242.43 242.43 0 0 0-9.617 7.998z" fill="#000000" opacity="1" data-original="#000000"></path></g></svg>