<svg xmlns="http://www.w3.org/2000/svg" version="1.1" xmlns:xlink="http://www.w3.org/1999/xlink" width="512" height="512" x="0" y="0" viewBox="0 0 512 512" style="enable-background:new 0 0 512 512" xml:space="preserve" class=""><g><path d="M294.33 40.082C283.288 6.953 267.39 0 256 0c-11.392 0-27.289 6.953-38.331 40.082l-24.98 74.941c20.522-9.039 41.727-13.628 63.311-13.628 21.584.001 42.788 4.589 63.309 13.628L294.33 40.082zM492.797 443.301l-38.578-43.506c-5.221 16.952-13.136 32.332-23.643 45.848-13.131 16.896-30.308 30.895-51.052 41.61-3.388 1.751-6.893 3.388-10.47 4.96l85.411 17.477c7.491 1.533 14.393 2.31 20.511 2.31 23.107 0 31.592-11.184 34.589-17.85 4.349-9.669 4.969-26.339-16.768-50.849zM132.476 487.254c-20.744-10.715-37.921-24.715-51.053-41.609C70.916 432.128 63 416.748 57.78 399.794l-38.579 43.505c-21.735 24.51-21.115 41.18-16.768 50.848 2.999 6.667 11.48 17.851 34.587 17.853h.007c6.114 0 13.013-.777 20.504-2.31l85.412-17.477c-3.574-1.571-7.08-3.209-10.467-4.959zM381.663 204.913c-16.328-22.053-34.901-39.636-55.204-52.26-22.685-14.105-46.391-21.259-70.46-21.259-24.067 0-47.773 7.153-70.459 21.259-20.302 12.624-38.875 30.207-55.203 52.26-31.31 42.287-50.004 95.715-50.004 142.92 0 11.268 1.093 22.084 3.252 32.15l.002.01c7.719 35.998 28.799 63.117 62.657 80.605 28.432 14.684 65.358 22.131 109.755 22.131 44.398 0 81.325-7.447 109.758-22.131 33.86-17.489 54.942-44.612 62.658-80.616l.002-.012c2.156-10.064 3.249-20.877 3.249-32.137 0-47.205-18.692-100.635-50.003-142.92zm-72.001 40.482a15.112 15.112 0 0 1 10.61-4.391 15.11 15.11 0 0 1 10.6 4.391 15.11 15.11 0 0 1 4.39 10.609c0 3.95-1.6 7.811-4.39 10.601a15.074 15.074 0 0 1-10.6 4.399c-3.95 0-7.82-1.6-10.61-4.399-2.8-2.789-4.4-6.65-4.4-10.601a15.075 15.075 0 0 1 4.4-10.609zm-128.54 0a15.13 15.13 0 0 1 10.61-4.391 15.13 15.13 0 0 1 10.609 4.391 15.11 15.11 0 0 1 4.391 10.609c0 3.95-1.601 7.811-4.391 10.601a15.096 15.096 0 0 1-10.609 4.399c-3.95 0-7.811-1.6-10.61-4.399-2.79-2.78-4.39-6.65-4.39-10.601 0-3.949 1.6-7.818 4.39-10.609zm74.877 207.335c-55.178 0-123.218-12.604-141.064-71.229 40.112-37.872 91.084-59.439 141.064-59.439 49.978 0 100.95 21.565 141.066 59.438-17.847 58.626-85.888 71.23-141.066 71.23z" fill="#000000" opacity="1" data-original="#000000"></path><path d="M318.756 383.361c-1.994-8.041-10.136-12.94-18.17-10.947-14.724 3.652-29.726 5.504-44.589 5.504-14.858 0-29.864-1.852-44.598-5.505-8.038-1.993-16.175 2.907-18.169 10.949-1.993 8.04 2.909 16.175 10.95 18.169 17.093 4.238 34.527 6.387 51.818 6.387 17.294 0 34.727-2.148 51.811-6.387 8.041-1.994 12.942-10.129 10.947-18.17z" fill="#000000" opacity="1" data-original="#000000"></path></g></svg>