<svg xmlns="http://www.w3.org/2000/svg" version="1.1" xmlns:xlink="http://www.w3.org/1999/xlink" width="512" height="512" x="0" y="0" viewBox="0 0 511.999 511.999" style="enable-background:new 0 0 512 512" xml:space="preserve"><g><path d="m504.756 130.584-6.069-13.622-14.218 4.497c-34.743 10.988-75.219 23.659-93.385 29.337-.286-.257-.574-.514-.864-.769a56.637 56.637 0 0 0 3.883-20.602l-.001-.667c-.171-21.423-12.426-40.653-30.939-50.187-3.226-16.96-13.987-31.608-29.816-39.787-12.54-6.487-26.955-8.016-40.4-4.591-10.147-8.508-22.958-13.218-36.592-13.218h-.055c-13.668.012-26.503 4.76-36.653 13.323-13.465-3.397-27.892-1.819-40.433 4.726-15.851 8.274-26.563 23.013-29.687 40.036-18.537 9.698-30.661 29.109-30.59 50.644a56.58 56.58 0 0 0 3.582 19.666c-.543.471-1.083.944-1.614 1.424-18.17-5.681-58.637-18.349-93.375-29.335l-14.218-4.497-6.069 13.622c-12.537 28.135-6.48 47.834.809 59.404 16.87 26.777 55.487 35.394 77.681 38.163a167.714 167.714 0 0 0-.393 11.468c0 38.764 8.947 62.52 20.274 92.598 3.763 9.992 7.653 20.324 11.681 32.399 10.493 31.454 23.184 63.892 44.815 88.068 20.121 22.488 45.491 35.089 77.193 38.276v-53.132c-20.227-9.561-39.928-33.499-39.928-52.576 0-32.119 35.448-32.119 56.627-32.119 21.179 0 56.627 0 56.627 32.119 0 19.077-19.701 43.014-39.928 52.576v53.132c31.702-3.187 57.072-15.789 77.193-38.276 21.632-24.177 34.322-56.614 44.815-88.068 4.028-12.075 7.918-22.407 11.681-32.399 11.327-30.078 20.274-53.832 20.274-92.598 0-3.91-.135-7.729-.392-11.468 22.194-2.769 60.81-11.387 77.679-38.163 7.286-11.57 13.342-31.268.805-59.404zM204.05 293.728c-11.293 0-20.485-9.271-20.485-20.707 0-11.438 9.191-20.7 20.485-20.7 11.308 0 20.497 9.262 20.497 20.7 0 11.437-9.188 20.707-20.497 20.707zm103.744.155c-11.404 0-20.653-9.34-20.653-20.861s9.25-20.862 20.653-20.862c11.389 0 20.639 9.34 20.639 20.862s-9.25 20.861-20.639 20.861z" fill="#000000" opacity="1" data-original="#000000"></path><path d="M239.301 491.024h.668a75.43 75.43 0 0 1-.668-.065v.065zM272.697 491.024v-.065l-.668.065h.668z" fill="#000000" opacity="1" data-original="#000000"></path></g></svg>