<svg xmlns="http://www.w3.org/2000/svg" version="1.1" xmlns:xlink="http://www.w3.org/1999/xlink" width="512" height="512" x="0" y="0" viewBox="0 0 511.999 511.999" style="enable-background:new 0 0 512 512" xml:space="preserve"><g><path d="M457.217 0c-24.059 0-43.632 19.569-43.632 43.623a43.38 43.38 0 0 0 2.786 15.324c-16.051 18.748-26.62 43.702-31.664 63.222-6.038-1.316-12.297-2.028-18.723-2.028s-12.685.712-18.723 2.028c-5.045-19.52-15.614-44.475-31.664-63.222a43.403 43.403 0 0 0 2.786-15.324C318.382 19.569 298.808 0 274.75 0c-24.059 0-43.632 19.569-43.632 43.623s19.573 43.623 43.632 43.623a43.371 43.371 0 0 0 17.794-3.807c12.769 16.245 20.834 38.584 23.655 52.216-17.355 11.978-30.207 30.021-35.46 51.049-21.765-8.898-45.266-13.545-69.142-13.545-84.971 0-157.706 57.921-174.308 138.223-6.527 10.324-11.59 21.906-14.999 34.414-6.951 9.672-11.14 22.088-11.14 35.614 0 12.843 3.782 24.677 10.113 34.12 12.087 50.326 50.602 85.19 94.681 85.19a84.59 84.59 0 0 0 15.394-1.412C142.756 505.159 158.894 512 182.209 512h142.368c48.561 0 82.547-10.434 103.899-31.897 25.718-25.854 25.536-60.73 25.415-83.81a792.99 792.99 0 0 1-.017-4.552l-.028-183.759c0-29.968-15.098-56.465-38.08-72.326 2.82-13.634 10.886-35.973 23.655-52.217a43.355 43.355 0 0 0 17.794 3.807c24.059 0 43.632-19.569 43.632-43.623C500.849 19.568 481.276 0 457.217 0zM44.541 381.41c0-10.609 6.121-22.428 14.905-22.428s14.905 11.82 14.905 22.428-6.121 22.428-14.905 22.428-14.905-11.819-14.905-22.428zm71.403 85.922c-19.728-.001-37.928-11.713-50.064-30.615 23.595-3.651 41.856-27.052 41.856-55.306 0-27.61-17.438-50.587-40.249-55.028 12.178-17.535 29.763-28.362 48.457-28.362 35.932 0 65.164 37.976 65.164 84.655 0 46.68-29.232 84.656-65.164 84.656zm146.492-10.777c-14.558 14.635-41.551 22.056-80.227 22.056-2.903 0-5.611-.16-8.188-.426 4.529-3.965 8.809-8.422 12.793-13.355 17.851-22.102 27.682-51.279 27.682-82.155 0-30.877-9.832-60.052-27.682-82.155-18.693-23.144-43.861-35.889-70.87-35.889a84.155 84.155 0 0 0-24.524 3.634c26.09-37.6 70.548-61.716 120.176-61.716 23.262 0 46.068 5.37 66.521 15.591v169.603c0 1.534.009 3.112.017 4.727.109 20.658.231 44.073-15.698 60.085z" fill="#000000" opacity="1" data-original="#000000"></path></g></svg>