<svg xmlns="http://www.w3.org/2000/svg" version="1.1" xmlns:xlink="http://www.w3.org/1999/xlink" width="512" height="512" x="0" y="0" viewBox="0 0 512 512" style="enable-background:new 0 0 512 512" xml:space="preserve" class=""><g><path d="M422.17 181.172c17.803-17.803 25.53-43.18 20.673-67.883s-21.619-45.265-44.837-55.001L336.2 32.368A376.791 376.791 0 0 1 412.155 189.6a77.179 77.179 0 0 0 10.015-8.428zM99.846 189.601a376.79 376.79 0 0 1 75.957-157.234l-61.809 25.92a75.3 75.3 0 0 0-44.837 55.001 75.303 75.303 0 0 0 20.673 67.883 77.204 77.204 0 0 0 10.016 8.43z" fill="#000000" opacity="1" data-original="#000000" class=""></path><circle cx="381" cy="305" r="30" fill="#000000" opacity="1" data-original="#000000" class=""></circle><circle cx="131" cy="305" r="30" fill="#000000" opacity="1" data-original="#000000" class=""></circle><path d="M131 245c33.084 0 60 26.916 60 60a59.743 59.743 0 0 1-2.925 18.48L241 336.712V215c0-8.284 6.716-15 15-15s15 6.716 15 15v121.712l52.925-13.231A59.75 59.75 0 0 1 321 305c0-33.084 26.916-60 60-60 3.082 0 6.11.235 9.068.685-6.843-94.095-51.344-181.274-124.465-242.209a15 15 0 0 0-19.205 0C173.277 64.41 128.775 151.59 121.933 245.685A60.239 60.239 0 0 1 131 245z" fill="#000000" opacity="1" data-original="#000000" class=""></path><path d="M509.923 300.429c-3.076-7.691-11.804-11.433-19.497-8.356l-12.284 4.913c-28.64 11.456-47.146 38.79-47.146 69.636V377c0 24.813-20.187 45-45 45-13.785 0-25-11.215-25-25H361v-35.44a60.016 60.016 0 0 1-19.586-11.528l-74.501 18.625c-3.571.891-7.24 1.343-10.913 1.343s-7.343-.452-10.907-1.342l-74.506-18.627a60.027 60.027 0 0 1-19.586 11.528V397h.004c0 13.785-11.215 25-25 25-24.813 0-45-20.187-45-45v-10.378c0-30.846-18.506-58.18-47.146-69.636l-12.284-4.913c-7.691-3.076-16.422.664-19.498 8.357-3.077 7.691.665 16.421 8.357 19.498l12.283 4.913c17.184 6.874 28.287 23.274 28.287 41.782V377c0 41.355 33.645 75 75 75 30.327 0 55-24.673 55-55H211v10c0 41.355-33.645 75-75 75H86c-8.284 0-15 6.716-15 15s6.716 15 15 15h50c57.897 0 105-47.103 105-105v-10h30v10c0 57.897 47.103 105 105 105h50c8.284 0 15-6.716 15-15s-6.716-15-15-15h-50c-41.355 0-75-33.645-75-75v-10h29.996c0 30.327 24.673 55 55 55 41.355 0 75-33.645 75-75v-10.378c0-18.508 11.104-34.908 28.287-41.782l12.283-4.913c7.693-3.076 11.434-11.806 8.357-19.498z" fill="#000000" opacity="1" data-original="#000000" class=""></path></g></svg>