<svg xmlns="http://www.w3.org/2000/svg" version="1.1" xmlns:xlink="http://www.w3.org/1999/xlink" width="512" height="512" x="0" y="0" viewBox="0 0 512 512" style="enable-background:new 0 0 512 512" xml:space="preserve"><g><path d="m498.258 39.793-23.656-23.617-8.524 8.539V0h-33.427v24.715l-8.524-8.539-23.656 23.617 25.894 25.938c-6.79 4.706-15.498 9.096-24.525 13.637-26.356 13.263-61.08 30.769-76.511 71.539-21.977-9.88-45.4-15.052-69.331-15.052-23.931 0-47.353 5.172-69.331 15.052-15.431-40.77-50.155-58.276-76.511-71.539-9.025-4.542-17.734-8.932-24.523-13.637l25.894-25.938-23.654-23.616-8.524 8.538V0H45.921v24.715l-8.524-8.539-23.655 23.617 27.353 27.398c-10.074 19.021-22.361 52.093-13.546 89.847 7.55 32.343 28.906 60.818 63.557 84.827C73.87 273.397 64.42 308.646 64.42 343.362c0 50.872 19.81 94.123 57.289 125.077 30.728 25.378 72.003 40.574 117.58 43.56v-68.421c-14.768-8.522-28.232-25.941-28.232-40.035 0-26.446 29.238-26.446 44.945-26.446s44.945 0 44.945 26.446c0 14.094-13.465 31.512-28.232 40.035V512c45.577-2.986 86.852-18.182 117.58-43.56 37.479-30.954 57.288-74.205 57.288-125.077 0-34.714-9.451-69.964-26.686-101.497 34.651-24.008 56.007-52.481 63.557-84.826 8.814-37.753-3.472-70.826-13.546-89.849l27.35-27.398zM202.277 334.097c-11.68 0-21.184-9.626-21.184-21.501 0-11.876 9.505-21.494 21.184-21.494 11.694 0 21.196 9.618 21.196 21.494 0 11.874-9.502 21.501-21.196 21.501zm107.283.16c-11.792 0-21.358-9.698-21.358-21.661 0-11.964 9.566-21.661 21.358-21.661 11.778 0 21.343 9.697 21.343 21.661.001 11.963-9.565 21.661-21.343 21.661z" fill="#000000" opacity="1" data-original="#000000"></path></g></svg>