<svg xmlns="http://www.w3.org/2000/svg" version="1.1" xmlns:xlink="http://www.w3.org/1999/xlink" width="512" height="512" x="0" y="0" viewBox="0 0 511.999 511.999" style="enable-background:new 0 0 512 512" xml:space="preserve"><g><path d="M430.272 38.136c-28.605-1.365-55.81 12.092-72.704 34.717a216.602 216.602 0 0 0-15.259-8.368c-22.399-11.113-45.747-17.779-69.614-19.896v99.438h-33.391V44.59c-23.867 2.117-47.215 8.783-69.614 19.896a215.757 215.757 0 0 0-15.258 8.367c-16.893-22.626-44.095-36.085-72.705-34.716C34.413 40.406-2.203 81.373.103 129.458c1.585 33.026 20.982 61.58 49.703 75.056-4.999 14.507-8.625 29.375-10.795 44.344l116.767 27.116-7.553 32.526-111.578-25.912c.174 30.153 6.469 57.936 18.551 82.594l93.026-21.602 7.553 32.526-81.88 19.013c8.115 10.441 17.517 20.095 28.17 28.879 35.741 29.469 83.985 46.94 137.239 49.959V368.701c-20.215-9.578-39.903-33.549-39.903-52.654 0-32.161 35.429-32.161 56.598-32.161 21.169 0 56.598 0 56.598 32.161 0 19.104-19.688 43.075-39.903 52.654v105.256c53.252-3.02 101.495-20.491 137.235-49.959 10.653-8.784 20.054-18.439 28.17-28.88l-81.875-19.013 7.553-32.526 93.023 21.601c12.082-24.657 18.376-52.441 18.551-82.593L363.78 308.496l-7.553-32.526 116.763-27.115c-2.17-14.968-5.797-29.837-10.795-44.345 28.719-13.471 48.116-42.026 49.701-75.053 2.306-48.085-34.309-89.051-81.624-91.321zm-226.189 196.96c-11.287 0-20.473-9.287-20.473-20.745 0-11.459 9.186-20.738 20.473-20.738 11.302 0 20.486 9.279 20.486 20.738-.001 11.458-9.184 20.745-20.486 20.745zm103.684.155c-11.396 0-20.641-9.356-20.641-20.9 0-11.543 9.245-20.9 20.641-20.9 11.383 0 20.627 9.356 20.627 20.9 0 11.543-9.245 20.9-20.627 20.9z" fill="#000000" opacity="1" data-original="#000000"></path></g></svg>