<svg xmlns="http://www.w3.org/2000/svg" version="1.1" xmlns:xlink="http://www.w3.org/1999/xlink" width="512" height="512" x="0" y="0" viewBox="0 0 512.041 512.041" style="enable-background:new 0 0 512 512" xml:space="preserve"><g><path d="M133.745 419.048c-9.167-10.286-17.129-21.543-23.827-33.549-15.183 18.182-21.936 43.059-16.527 66.12 6.681 28.486 29.149 50.212 58.125 55.826l22.098 4.281c8.909 1.968 18.089-5.579 17.853-14.726v-35.334c-20.464-9.712-42.067-25.051-57.722-42.618zM378.296 419.048c9.167-10.286 17.129-21.543 23.827-33.549 15.183 18.182 21.936 43.059 16.527 66.12-6.681 28.486-29.149 50.212-58.125 55.826l-22.098 4.281c-8.909 1.968-18.089-5.579-17.853-14.726v-35.334c20.464-9.712 42.067-25.051 57.722-42.618zM133.745 154.975c10.483-11.763 22.164-21.842 34.878-30.141-9.868-8.889-22.673-14.143-36.056-14.603-15.649-.542-30.992 5.507-42.07 16.585-33.397 33.397-43.299 66.902-49.024 98.134-6.314 34.447 2.762 65.112 3.152 66.401a15 15 0 0 0 14.358 10.66c10.149 0 18.773-.937 26.16-2.627-.24-4.102-.372-8.227-.372-12.373 0-49.706 17.392-96.598 48.974-132.036zM470.568 224.95c-5.725-31.231-15.625-64.735-49.024-98.134-11.079-11.078-26.409-17.129-42.071-16.585-13.382.46-26.188 5.714-36.055 14.603 12.714 8.298 24.395 18.377 34.878 30.141 31.581 35.439 48.974 82.33 48.974 132.037 0 4.146-.132 8.271-.372 12.373 7.387 1.69 16.011 2.627 26.16 2.627 6.613 0 12.445-4.33 14.358-10.66.39-1.289 9.466-31.955 3.152-66.402zM256.021 98.51c20.455 0 40.361 3.902 59.304 11.6-.008-5.114.798-10.326 2.461-15.456 7.384-22.781 5.929-43.766-4.207-60.687-10.48-17.494-29.466-29.158-54.904-33.731a15.025 15.025 0 0 0-5.308 0c-25.439 4.573-44.424 16.237-54.905 33.731-10.136 16.92-11.591 37.905-4.207 60.686 1.663 5.13 2.469 10.343 2.461 15.456 18.944-7.697 38.85-11.599 59.305-11.599zM298.344 287.011l-21.162-36.653h-42.323l-21.163 36.653 21.163 36.654h42.323zM396.636 302.011h-72.312l-20.978 36.335 43.755 69.802c27.484-26.047 45.981-63.651 49.535-106.137zM164.939 165.874c-27.484 26.047-45.98 63.651-49.535 106.137h72.311l20.978-36.335zM256.021 445.512c24.319 0 47.202-6.898 67.182-19.044-.113-.166-45.661-72.804-45.661-72.804h-43.043s-45.547 72.638-45.661 72.804c19.98 12.146 42.863 19.044 67.183 19.044zM164.939 408.148l43.755-69.802-20.978-36.335h-72.311c3.554 42.486 22.051 80.09 49.534 106.137zM396.636 272.011c-3.555-42.485-22.051-80.09-49.535-106.137l-43.755 69.802 20.978 36.335zM188.829 147.559c.114.167.238.323.347.495l45.323 72.303h43.043l45.323-72.303c.108-.173.232-.329.347-.495-19.982-12.149-42.868-19.049-67.191-19.049s-47.21 6.9-67.192 19.049z" fill="#000000" opacity="1" data-original="#000000"></path></g></svg>