<svg xmlns="http://www.w3.org/2000/svg" version="1.1" xmlns:xlink="http://www.w3.org/1999/xlink" width="512" height="512" x="0" y="0" viewBox="0 0 512 512" style="enable-background:new 0 0 512 512" xml:space="preserve"><g><path d="M440.509 206.274c0-54.719-18.945-106.256-53.346-145.119C352.255 21.719 305.673 0 256 0s-96.255 21.719-131.163 61.155c-34.4 38.863-53.346 90.4-53.346 145.119 0 23.469 3.479 46.354 10.33 68.205-4.394 13.315-5.798 26.352-5.798 37.537 0 43.854 32.954 80.112 75.333 85.251V512h33.391V396.595c22.443 10.471 46.765 15.952 71.254 15.952 22.585 0 45.027-4.663 65.986-13.601V512h33.391V397.753c44.887-2.643 80.6-40.08 80.6-85.735 0-13.568-1.928-26.154-5.744-37.712 6.814-21.8 10.275-44.626 10.275-68.032zM202.42 102.9c11.664 0 21.141 9.608 21.141 21.471 0 11.862-9.478 21.477-21.141 21.477-11.648 0-21.128-9.616-21.128-21.477.001-11.863 9.48-21.471 21.128-21.471zm36.883 217.109c-23.047 4.38-37.162 17.436-48.918 28.319-11.494 10.643-17.992 16.197-28.688 16.197-28.829 0-52.284-23.555-52.284-52.508 0-22.738 7.346-41.32 21.831-55.226 21.202-20.354 57.511-31.641 108.059-33.631v96.849zm70.118-217.276c11.747 0 21.287 9.687 21.287 21.638s-9.54 21.638-21.287 21.638c-11.762 0-21.301-9.687-21.301-21.638s9.539-21.638 21.301-21.638zm40.882 261.792c-10.694 0-17.192-5.554-28.688-16.197-11.756-10.883-25.872-23.94-48.918-28.319v-96.848c50.548 1.991 86.856 13.278 108.059 33.631 14.486 13.907 21.831 32.487 21.831 55.226-.001 28.952-23.455 52.507-52.284 52.507z" fill="#000000" opacity="1" data-original="#000000"></path><path d="M202.424 253.58c-5.454 0-9.893 4.499-9.893 10.054 0 5.554 4.439 10.056 9.893 10.056 5.462 0 9.899-4.502 9.899-10.056 0-5.555-4.438-10.054-9.899-10.054zM181.289 308.842c-5.454 0-9.893 4.499-9.893 10.054 0 5.554 4.439 10.056 9.893 10.056 5.462 0 9.899-4.502 9.899-10.056.001-5.555-4.437-10.054-9.899-10.054zM148.67 275.827c-5.454 0-9.893 4.499-9.893 10.054 0 5.555 4.439 10.057 9.893 10.056 5.462 0 9.899-4.502 9.899-10.056.001-5.555-4.437-10.054-9.899-10.054zM309.576 253.58c-5.462 0-9.899 4.499-9.899 10.054 0 5.554 4.438 10.056 9.899 10.056 5.454 0 9.893-4.502 9.893-10.056 0-5.555-4.439-10.054-9.893-10.054zM330.711 308.842c-5.462 0-9.899 4.499-9.899 10.054 0 5.554 4.438 10.056 9.899 10.056 5.454 0 9.893-4.502 9.893-10.056 0-5.555-4.439-10.054-9.893-10.054zM363.33 275.827c-5.462 0-9.899 4.499-9.899 10.054 0 5.554 4.438 10.056 9.899 10.056 5.454.001 9.893-4.501 9.893-10.056-.001-5.555-4.439-10.054-9.893-10.054z" fill="#000000" opacity="1" data-original="#000000"></path></g></svg>