<svg xmlns="http://www.w3.org/2000/svg" version="1.1" xmlns:xlink="http://www.w3.org/1999/xlink" width="512" height="512" x="0" y="0" viewBox="0 0 512 512" style="enable-background:new 0 0 512 512" xml:space="preserve"><g><path d="M355.818 376.166c-17.808 11.182-39.698 24.926-88.564 26.605l-12.562 30.961c1.908.05 93.473.076 93.473.076 56.804 0 106.851-28.913 136.241-72.821h-82.333c-22.084.001-32.222 6.368-46.255 15.179z" fill="#000000" opacity="1" data-original="#000000"></path><path d="M172.996 355.567c7.762 2.895 11.708 11.534 8.813 19.296l-26.281 70.473c-1.801 4.829.282 8.631 1.261 10.041s3.813 4.69 8.967 4.69h20.5c15.416 0 29.121-9.23 34.917-23.515l22.01-54.25a15 15 0 0 1 13.899-9.361c47.455 0 65.414-11.277 82.782-22.183 15.48-9.72 31.487-19.771 62.208-19.771h98.178c7.574-18.858 11.75-39.447 11.75-61.014 0-16.07-13.027-29.098-29.098-29.098H171.679c-35.724 0-64.685-28.96-64.685-64.685v-31.022c24.215 0 43.844-19.63 43.844-43.844V66.933c0-8.284-6.716-15-15-15h-23.749c-20.252 0-36.67 16.418-36.67 36.67 0-20.252-16.418-36.67-36.67-36.67H15c-8.284 0-15 6.716-15 15v34.391c0 24.215 19.63 43.844 43.844 43.844v72.052c0 75.542 38.683 142.039 97.312 180.797L153.7 364.38c2.896-7.762 11.537-11.709 19.296-8.813zm102.571-48.224c5.656-11.064 22.529-10.244 27.069 1.33 4.271 9.438-3.519 21.033-13.85 20.74-11.034.238-18.666-12.451-13.219-22.07z" fill="#000000" opacity="1" data-original="#000000"></path></g></svg>