<svg xmlns="http://www.w3.org/2000/svg" version="1.1" xmlns:xlink="http://www.w3.org/1999/xlink" width="512" height="512" x="0" y="0" viewBox="0 0 511.998 511.998" style="enable-background:new 0 0 512 512" xml:space="preserve"><g><path d="M441.69 267.28c-14.455-10.223-24.252-35.091-34.623-61.416-1.962-4.98-3.975-10.081-6.075-15.238 55.509-89.031 48.027-169.561 47.671-173.038L446.861 0l-17.46 2.793c-3.053.488-70.854 12.15-112.438 85.334-17.832-7.772-38.059-11.612-60.964-11.612s-43.133 3.841-60.964 11.612C153.451 14.943 85.651 3.281 82.597 2.793L65.138 0l-1.804 17.589c-.356 3.477-7.838 84.006 47.671 173.038-2.1 5.157-4.112 10.258-6.075 15.237-10.372 26.327-20.168 51.193-34.623 61.416l-18.352 12.98 17.718 13.832c62.193 48.558 70.854 95.07 77.814 132.442 4.283 22.999 8.328 44.722 23.989 60.97 14.299 14.835 35.573 22.602 67.813 24.493v-69.415c-19.881-9.617-39.176-33.394-39.176-52.363 0-32.072 34.983-32.072 55.885-32.072s55.884 0 55.884 32.072c0 18.969-19.294 42.746-39.174 52.363v69.415c32.24-1.892 53.514-9.658 67.813-24.493 15.66-16.247 19.705-37.971 23.989-60.97 6.959-37.373 15.62-83.884 77.814-132.442l17.717-13.833-18.351-12.979zm-236.835 21.263c-11.119 0-20.168-9.251-20.168-20.661 0-11.412 9.049-20.654 20.168-20.654 11.133 0 20.18 9.242 20.18 20.654 0 11.412-9.047 20.661-20.18 20.661zm102.136.155c-11.227 0-20.334-9.319-20.334-20.815s9.107-20.815 20.334-20.815c11.212 0 20.319 9.319 20.319 20.815s-9.105 20.815-20.319 20.815z" fill="#000000" opacity="1" data-original="#000000"></path></g></svg>