<svg xmlns="http://www.w3.org/2000/svg" version="1.1" xmlns:xlink="http://www.w3.org/1999/xlink" width="512" height="512" x="0" y="0" viewBox="0 0 512 512" style="enable-background:new 0 0 512 512" xml:space="preserve"><g><path d="m464.852 13.2-2.705-10.818L451.118.736c-1.804-.269-44.625-6.274-80.697 21.732-20.976 16.286-35.05 40.191-42.006 71.24a145.408 145.408 0 0 0-6.372-2.364c-2.409-1.021-8.395-3.289-18.143-5.4L316.77 0H195.23l12.868 85.943c-9.744 2.111-15.732 4.383-18.137 5.402a145.614 145.614 0 0 0-6.377 2.365c-6.955-31.049-21.029-54.955-42.006-71.24C105.508-5.535 62.685.467 60.882.737L49.853 2.383l-2.705 10.818c-.302 1.201-7.286 29.811-1.4 64.371 5.118 30.044 21.027 69.94 66.746 96.185a154.451 154.451 0 0 0-2.699 11.891h84.123v33.391h-87.214c-.099 9.681.4 20.036 1.596 31.133 2.807 26.025 7.838 44.95 14.03 62.664h82.023v33.391h-69.248c3.105 7.949 6.279 16.302 9.486 25.68.789 2.306 1.357 6.12 1.749 10.617 30.197-14.194 68.786-22.221 109.661-22.221s79.466 8.027 109.661 22.221c.392-4.499.961-8.311 1.749-10.616 3.207-9.38 6.38-17.733 9.487-25.681h-69.249v-33.391h82.025c6.192-17.714 11.223-36.638 14.03-62.664 1.197-11.096 1.695-21.451 1.596-31.133h-87.216v-33.392h84.122a154.558 154.558 0 0 0-2.699-11.891c45.719-26.243 61.628-66.14 66.746-96.185 5.885-34.561-1.099-63.17-1.401-64.371zM125.356 142.553c-25.442-15.884-41.066-39.2-46.502-69.514-2.799-15.606-2.258-29.915-1.234-39.511 11.184.6 28.452 3.646 43.481 15.317 16.687 12.956 27.341 33.885 31.782 62.247-10.334 8.048-19.85 18.332-27.527 31.461zm78.99 144.136c-11.229 0-20.369-9.292-20.369-20.754 0-11.463 9.139-20.747 20.369-20.747 11.244 0 20.381 9.284 20.381 20.747 0 11.462-9.137 20.754-20.381 20.754zm123.677-20.753c0 11.548-9.197 20.909-20.522 20.909-11.339 0-20.536-9.361-20.536-20.909 0-11.548 9.197-20.909 20.536-20.909 11.325.001 20.522 9.361 20.522 20.909zM433.335 71.964c-5.252 30.838-20.94 54.515-46.691 70.588-7.677-13.128-17.193-23.413-27.528-31.461 4.414-28.189 14.968-49.04 31.482-62.011 15.096-11.856 32.52-14.94 43.779-15.546.999 9.385 1.541 23.269-1.042 38.43zM147.056 420.021c2.316 42.387 24.139 64.409 42.616 75.514C212.312 509.144 238.237 512 256.001 512s43.688-2.856 66.328-16.464c18.479-11.106 40.3-33.128 42.616-75.516-26.39-16.441-66.528-26.327-108.945-26.327-42.415 0-82.553 9.887-108.944 26.328zm73.149 30.772c-9.693 0-17.583-8.022-17.583-17.916 0-9.896 7.889-17.91 17.583-17.91 9.707 0 17.594 8.014 17.594 17.91 0 9.894-7.887 17.916-17.594 17.916zm71.459-35.965c9.776 0 17.715 8.081 17.715 18.049s-7.939 18.049-17.715 18.049c-9.788 0-17.727-8.081-17.727-18.049-.001-9.968 7.938-18.049 17.727-18.049z" fill="#000000" opacity="1" data-original="#000000"></path></g></svg>