<svg xmlns="http://www.w3.org/2000/svg" viewBox="0 0 1080 1080"><path d="M512 214h17l11 4 9 6 8-1h15l10 3 10 6 8 9 5 11 1 4v17l-4 11-6 9-2 3 6 9v2l4 2 5 2 44 1 5 3 2 4v5l45 8 29 7 26 8 21 8 22 11 13 9 10 9 7 11 6 12 6 18 6 27 4 29 3 40 1 61 10 8 16 13 14 12 15 15 9 11 12 15 11 17 10 19 6 15 6 22 4 24 1 25-2 24-4 19-6 18-8 16-8 14-11 14-11 12-9 9-14 11-13 9-15 9-16 8-21 9-24 8-25 6-42 6-46 4-55 3-69 2h-70l-75-2-52-3-44-4-36-5-27-6-33-11-20-9-19-10-15-10-13-10-10-9-8-7-7-8-11-14-8-13-8-16-7-19-5-24-1-10v-29l3-24 5-21 7-19 9-19 12-19 11-14 11-13 14-15 10-9 16-13 16-13 8-6v-57l1-28 3-33 4-24 6-21 6-14 8-11 7-8 11-9 15-10 21-10 30-10 26-6 34-6 16-2 2-1-2-3 1-8 3-3 3-1 51-1 9-5 7-10 3-5-2-4-7-10-4-11v-17l4-11 6-9 8-7 11-5Zm20 81-4 1h-19l-11 17-6 7 95-1-7-11-2-3h-21l-10-3-11-7Z"/></svg>