<svg xmlns="http://www.w3.org/2000/svg" viewBox="0 0 1080 1080"><path d="M590 44h8l37 13 3 3v7l-13 38-9 7-9 9-8 7-9 9-2 1h-6l-5-4-7-8-23-23-1-2v-7l7-8 10-9 18-18 3-3 4-10ZM303 56l9 1 32 15 2 3-1 8-15 32-5 3-9-3-29-13-3-4 1-7 14-31Zm320 59 12 1 38 6 5 4v11l-6 39-3 5-3 2-11-1-39-6-5-5v-8l7-43Zm-136 18h7l4 4v2l5 2 3 5 1 4 1 34 4 16 4 8 8 10 9 6 14 6 13 3 8 1 37 1 8 4 5 8 2 8v8l-4 13-12 17-14 17-12 15-9 14v2l14 10 13 10 18 14 14 12 11 9 11 10 11 9 11 11 8 7 46 46 7 8 11 12 9 11 13 15 12 16 13 17 18 27 14 24 11 23 8 24 2 10v22l-3 10-6 10-8 5-33 17-39 20-33 17-39 20-19 10-20 10-19 10-22 11-19 10-45 23-29 15-39 20-29 15-39 20-39 20-35 18-35 18-35 18-27 13-18 6-6 1h-11l-15-3-15-6-14-8-13-10-13-12-9-11-9-14-5-11-4-15v-15l4-19 9-26 42-105-6-8-13-16-14-20-13-21-13-25-9-24-5-19-3-19v-28l3-18 5-16 7-16 8-14 9-12 12-14 14-13 4-2h12l7 3h12l6 4 4 5 1 3v10l-3 6-11 10-11 9-13 13-10 13-9 16-5 16-2 15v9l2 15 4 15 6 16 8 16 9 16 8 12 14 19 2 2 43-108 43-107 33-83 20-50 36-90 7-17 7-6 12-6 10-2h17l18 3 20 6 21 8 29 14 22 12 21 13 12 8 6-9 9-13 8-10 9-11-27-2-17-4-14-6-12-9-8-8-9-14-5-12-4-15-2-17v-22l3-25 3-9Zm-116 55h7l4 4 8 45v7l-4 4-21 4-23 4h-8l-4-4-4-20-4-24v-8l4-4 39-7Zm437 0 6 1 3 3 2 11 4 35v6l-4 5-23 3-17 2h-13l-4-4-5-41v-11l3-4 13-2Zm61 41h16l6 4 4 5 2 12 7 10 17 13 19 13 13 10 11 9 12 11 9 11 8 16 1 3v17l-4 10-4 6-4 5-13 9-14 7-39 16-25 12-11 7-2 2 53 26 16 10 17 14 10 9 4 7v10l-4 8-6 4-3 1h-8l-5-1-4 2h-13l-11-8-18-13-21-12-24-13-18-12-11-10-6-10-2-6v-15l5-12 11-12 10-8 15-9 19-10 30-13 19-8 7-4 2-4-4-8-14-14-17-13-20-14-17-12-14-11-8-9-4-10 1-11 4-7 7-6Zm-706 22 25 2 21 2 7 2 2 3v10l-4 40-2 5-4 2-25-2-26-3-4-4v-13l4-39 3-4Zm653 39 6 1 3 2 7 30 3 15v9l-3 3-36 8-9 2h-7l-5-5-9-42v-9l4-4Z"/></svg>