<svg xmlns="http://www.w3.org/2000/svg" viewBox="0 0 1080 1080"><path d="m134 195 10 1 8 6 13 12 10 9 10 9 10 9 10 9 13 12 12 11 12 11 12 11 16 15 12 11 18-4 28-5 25-2h25l31 3 26 5 25 7 26 10 27 13 20 12 20 14 16 13 12 11 7 6 7 8 7 7 9 11 12 15 15 23 10 18 2 3 8-16 8-14 10-14 10-11 5-6 8-7 10-8 13-8 12-6 18-6 18-3h19l18 3 18 6 17 9 14 10 12 11 9 9 13 17 12 20 8 17 9 25 6 24 3 19 2 29-1 29-3 23-5 23-9 27-8 18-11 19-10 14-13 15-7 7-14 11-13 8-17 8-18 5-19 2-18-1-18-4-16-6-16-9-12-9-10-9-11-11-10-13-5-7v-2h-8l-1 5-9 21-11 21-6 9 2 5 15 26 13 26 9 23 6 19 5 25 1 11v16l-2 16-4 12-4 6-6 5-5 2h-15l-10-4-3 8-6 14-7 11-9 10-8 8-14 10-14 8-19 8-23 7-28 6-37 5-42 3-38 1h-36l-48-1-32-2-36-4-27-5-23-6-20-7-21-10-15-10-12-11-8-8-7-10-8-15-5-15-2-11v-26l4-27 6-24 8-22 8-18 9-16 6-9-2-4-8-7-11-12-12-16-12-20-11-23-11-33-5-21-4-26-1-12v-35l3-27 5-24 7-24 11-28 12-24 14-23 14-19 8-10-2-28-5-145-1-26v-15l3-8 7-6Z"/></svg>