<svg xmlns="http://www.w3.org/2000/svg" viewBox="0 0 1080 1080"><path d="m495 37 9 1 6 5 4 10 6 35 10 74 18 12 13 10 11 9 13 12 19 19 9 11 12 15 12 18 9 15 12 23 9 21 8 24 6 25 4 26 1 12v32l-3 26-5 23-9 27-12 25-6 10 1 29 4 5 4 10v8l-3 10-3 5v11l9 19 8 20 10 9 7 10 5 13 2 11v17l-3 17-1 8 1 14 35-5h7l4 2 3 7 2 8v6l-4 5-39 15-5 1 1 4v35l-3 14-8 16-10 13-7 7-13 10-15 9-15 8-25 10-21 7-31 8-35 7-35 5-41 4-43 2h-48l-26-1-37-3-40-5-33-6-36-9-29-10-18-8-19-10-17-12-12-11-10-13-7-15-3-11-1-6v-46l2-30 4-32 6-31 8-29 7-20 10-23 13-25 6-9-2-4-15-16-13-17-10-15-10-18-11-27-6-21-4-21-2-19v-37l3-26 6-27 6-20 7-19 12-26 12-21 13-19 12-16 13-15 7-7 6-7 8-7 13-12 17-13 17-12 21-12 17-9 24-10 24-8 26-6 25-4 12-1h52l11-9 15-13 11-9 13-11 14-11 15-12 10-7 8-4Zm401 164h11l9 3 6 5 3 6v14l-6 21-12 37-15 43-14 39-8 21-6 12-7 8-8 4h-12l-10-4-8-6-10-9-21-21-8-7-18-18-5-5-6-7-3-8v-7l5-10 11-9 26-17-6 2-36 16-16 6-5 1h-15l-12-4-16-7-22-12-8-6-4-8v-7l4-8 10-6 23-6 88-21 62-14 50-10Zm19 331h9l8 4 4 4 2 6v24l-6 61-8 66-4 16-5 8-5 4-5 2h-10l-12-4-23-14-28-17-14-9-7-6-3-5-1-10 3-7 6-8 15-16-9 6-18 14-14 9-9 3h-16l-23-5-17-5-6-4-4-5-1-2v-8l3-6 7-6 98-49 23-11 36-17 24-10Zm-83 97"/></svg>