<svg xmlns="http://www.w3.org/2000/svg" viewBox="0 0 1080 1080"><path d="M472 139h68l34 2 38 4 28 4 42 8 36 9 36 11 30 11 32 14 24 12 21 12 21 14 19 14 14 12 13 12 10 10 7 8 14 18 11 18 8 16 8 20 6 25 2 19v15l-2 21-5 21-12 34-2 10v21l4 16 8 16 9 14 14 20 11 21 7 21 3 17v34l-4 20-7 21-10 20-8 12-10 13-11 12-9 10-8 7-13 11-19 14-19 12-21 12-24 12-28 12-34 12-29 9-40 10-36 7-41 6-41 4-39 2h-56l-38-2-42-4-41-6-40-8-36-9-35-11-28-10-32-14-22-11-21-12-21-14-17-13-13-11-9-8-7-8-12-13-12-17-9-16-8-18-6-21-2-13v-31l4-21 8-26 2-9v-18l-3-14-5-12-9-16-12-17-9-13-10-17-7-15-6-18-4-20-1-10v-28l3-21 5-19 8-20 11-21 10-15 11-14 12-13 18-18 11-9 14-11 19-13 21-13 22-12 28-13 30-12 35-12 37-10 36-8 43-7 34-4 25-2Z"/></svg>