<svg xmlns="http://www.w3.org/2000/svg" viewBox="0 0 1080 1080"><path d="M377 84h48l29 4 25 6 27 9 25 11 20 11 21 14 12 9 11 9 5 4 20 8 5 5 1 7-1 5 12 14 9 12v2h53l4 3 1 9-16 42-4 12 10 30 5 21 4 26 2 24 16 7 12 8 12 12 6 10 3 8 1 5v7l-3 10-6 8-1 2 2 15 6-7 8-7 15-11 17-10 20-8 19-5 12-2h34l21 4 18 6 16 8 15 9 11 9 10 9 8 8 10 13 10 16 9 19 6 20 3 18v26l-3 17-5 15-8 16-8 11 1 4 12 20 10 19 8 11 4 5v23l-4 17-5 12-7 10-9 10-13 10-6 3-2 13-4 8-4 5-9 6 7 1 4 4v162l-4 4-16 4h-9l-16-4-4-3-1-156-4 8-7 8-11 9-13 9-16 9-20 8-18 5-13 2h-29l-21-3-19-5-19-7-23-12-15-10-14-11-12-11-5-4-7-8-10-12-12-18-12-23-3-8h-6v138l-4 4-14 4h-14l-14-4-4-4V771l-9 2-14 2-14 9-16 8-19 7-17 4-17 2h-23l-24-3-24-6-16-6-13-6-54-2-40-3-10-1v31l-5 4-11 3h-17l-13-4-3-3-1-3v-37l-9-1-24-8-14-7-11-9-14-14-10-14-7-12v-2l-14 2-14 1H77l-21-2-20-4-20-6-12-5-4-5v-56l2-3 8 1 19 9 18 5 21 3h19l15-1 1-20 4-24 6-21 6-16 12-23 10-14-2-5-9-11-9-15-8-16-6-16-6-23-4-26-1-13v-33l3-27 5-24 8-26 11-26 11-21 12-19 14-19 12-14 12-13 11-11 8-7 15-12 17-12 18-11 23-12 16-7 16-6 25-7 26-5Zm292 422-4 5 2 5 1 1 12-1 4-2-12-6Zm38 35-12 6-3 1 1 4 10 18 3 4 1-17 2-16Zm12 86-2 22-5 16-6 11-7 7-6 4-4 15-6 12-8 10-2 3 7 20 7 14 8 11 9 11 16 16 15 11 17 10 19 8 21 5h25l16-3 15-6 14-9 1-2-37-1-22-3-20-5-16-6-15-8-10-8-6-5-8-10-8-14-5-16-2-12v-22l4-20 6-18 8-15 1-4-10-14Zm201 182 3 7 2 12 4-3 10-1-3-2-9-6-5-7Zm159-353h1v341l-6-2-12-8-10-9-9-10-8-14-5-14-3-17v-18l5-25 6-16 6-12 1-3-7-6-3-6-1-9-8-17-5-20-1-7v-23l3-19 5-16 5-12 6-12 10-15 11-13 14-14Zm-81 345h11l12 5 8 8 13 27 10 14 11 11 11 8 4 6 1 3v51l-3 3-8-1-16-7-15-8-11-8-13-11-12-13-10-15-8-16-6-15-2-7v-12l4-10 5-6 10-6Z"/></svg>