<svg xmlns="http://www.w3.org/2000/svg" viewBox="0 0 1080 1080"><path d="M559 150h2l-2 4-11 9-3 1 2-4 10-9Zm-149 35h29l26 3 22 5 24 8 18 8 17 9 21 14 14 11 13 12 16 16 9 11 13 17 12 19 12 22 10 23 10 30 6 27 3 24 1 17v14l-2 26-4 23-3 12v3l44 9 35 5 13 1h20l15-2 13-4 11-6 7-6 10-13 8-16 3-11 1-8v-10l-3-15-6-12-8-9-8-5-9-3h-15l-13 4-10 6-8 7-7 11-5 12-1 4v10l3 8 8 7 9 4 7 1 9-3 7-6 5-10v-9l-4-9v-10l4-7 5-4 9-1 7 3 5 6 5 12 2 17-2 12-5 13-7 10-5 5-8 7-10 5-13 3h-12l-12-3-14-7-10-8-9-12-5-13-2-16 2-16 5-15 8-15 8-10 10-10 14-9 15-6 15-3h13l16 3 10 4 12 8 12 12 7 11 6 13 4 16 1 8v21l-3 16-5 15-9 17-13 16-8 8-13 9-13 6-19 5-8 1h-40l-25-3-29-5-38-8h-3l-7 13 24 4 16 5 17 9 11 8 14 12 10 13 7 14 2 13-2 11-4 7-5 4-5 2h-19l-24-3h-19l-17 3h-3v18l-3 27-5 22-2 7h34l12 3 6 5 8 13 1 4-5 5-6 1h-41l-11-4-5-6-11 18-8 10-9 10-12 12-17 13-17 11-18 10-19 9-24 9-26 8-25 6-32 5-21 2h-51l-28-3-25-5-21-6-22-8-16-8-16-9-17-12-14-12-15-15-9-11-12-17-12-21-9-20-7-19-7-25-5-26-3-26-31 11-13 2-7-2-5-6-2-8v-14l4-16 8-16 8-12 11-14 14-15 14-13 5-4-17-1-33-6-5-3v-5l13-11 7-3h19l33 6 5 3 1 5 19-9 8-3-2-9-5-19-3-22v-27h-8l-16-4-6-5-3-7v-5h-16l-15-2-5-3-3-4-1-3v-25l3-4 3-1h11l18 2 7 4 3 7 1 16 7-3 10 1 12 2 1-11-14-20-22-33-15-23-12-19-17-28-11-19-1-3v-9l4-6 4-3 4-1 171-11 28-2 14-8 16-9 17-8 25-9 24-6 20-3Zm556 140 9 2 5 5 6 19v8l-4 5-8 3-20 4h-11l-6-4-3-6-5-17 1-8 6-5Zm-6 206h11l8 4 18 18 1 5-3 5-5 4-31 12-5 1h-8l-8-3-20-20v-6l5-6 33-13Zm-191 88 9 1 9 8 7 8 9 10 3 6v7l-4 6-9 11-2 1h-6l-6-4-11-11-7-8-4-5-2-4v-9l10-13Z"/></svg>