<svg xmlns="http://www.w3.org/2000/svg" viewBox="0 0 1080 1080"><path d="M548 5h26l20 4 16 6 16 9 10 8 10 9 11 14 9 16 6 16 4 20v25l-3 17-5 15-8 16-10 14-15 15-14 10 18 5 23 7 18 7 5-1 22-9 16-4 8-1h10l12 2 12 5 8 6 5 5 6 7 6 10 9 24 5 21 3 21 11 12 12 14 12 16 12 18 9 15 12 23 10 23 10 31 6 28 3 21 1 14v26l-2 23-4 22-6 23-8 21-9 19-14 23-13 17-12 14v3l10 16 10 18 12 27 11 30 14 40 8 18 5 10 7 9 5 4 4 2 8 2 5 6v20l-3 19-6 20-10 19-9 12-9 10-11 10-10 7-15 9-21 10-19 7-24 7-28 6-33 5-41 4-37 2-33 1H423l-31-2-31-4-28-6-24-8-25-12-15-10-11-9-15-15-11-15-9-15-9-20-8-24-3-17-1-11v-22l2-20 5-24 6-19 8-21 12-25 9-16 10-15 9-12-6-8-10-11-14-19-12-20-10-21-8-22-6-23-4-24-1-8-1-32 2-27 5-30 7-27 5-15-2-5-14-25-12-24-11-27-8-25-5-23-1-7v-25l3-10 4-6 7-6 8-3 5-4 9-4 14-3h20l21 3 23 6 24 9 22 10 11 6 5-2 13-10 17-11 21-12 22-11 25-10 29-9 28-6 7-2-11-9-12-12-11-16-8-17-5-17-2-13v-22l3-18 5-15 8-16 10-14 7-8 8-7 11-8 14-8 16-6Zm7 11-15 2-16 5-17 8-12 9-10 9-11 14-9 17-5 16-2 10v28l4 17 5 13 8 14 8 10 5 6 11 9 14 9 5 2 15-1h27l27 2 14 1 17-9 11-9 7-6 9-11 8-13 5-11 5-16 2-16v-11l-2-15-5-17-8-16-9-12-9-10-14-11-10-6-15-6-16-4-10-1Zm4 27 15 1 15 4 14 7 10 8 8 8 8 12 6 15 2 9 1 14-2 17-5 14-6 11-9 11-8 7-13 8-13 5-10 2h-22l-16-4-16-8-13-11-9-12-7-14-4-16v-22l4-16 8-16 8-10 10-9 14-8 10-4 9-2ZM319 59h20l12 3 12 6 10 8 8 10 7 15 2 9v20l-3 11-7 14-9 10-7 6-14 7-12 3h-18l-15-4-11-6-12-11-7-10-5-12-2-9v-18l3-12 7-14 9-10 8-7 15-7Zm464 0h21l16 5 11 7 7 6 8 11 5 10 3 12v20l-3 12-7 13-9 10-7 6-14 7-12 3h-18l-15-4-12-7-10-9-6-8-6-12-3-12v-18l4-15 6-11 9-10 8-7 15-7Z"/></svg>